<svg width="889" height="715" viewBox="0 0 889 715" fill="none" xmlns="http://www.w3.org/2000/svg">
<path d="M313 620H576V695C576 706.046 567.046 715 556 715H333C321.954 715 313 706.046 313 695V620Z" fill="url(#paint0_linear_1:2)"/>
<rect x="25" y="26" width="842" height="465" fill="url(#paint1_linear_1:2)"/>
<path d="M15 30C15 21.7157 21.7157 15 30 15H859C867.284 15 874 21.7157 874 30V503H15V30Z" stroke="black" stroke-width="30"/>
<path d="M0 518H889V590C889 606.569 875.569 620 859 620H30C13.4314 620 0 606.569 0 590V518Z" fill="url(#paint2_linear_1:2)"/>
<path d="M699 589C699 583.477 703.477 579 709 579H808C813.523 579 818 583.477 818 589V620.13C818 627.355 818.783 634.56 820.335 641.616L820.827 643.851C822.2 650.091 817.45 656 811.061 656H712.539C707.844 656 703.781 652.734 702.773 648.149L701.335 641.616C699.783 634.56 699 627.355 699 620.13V589Z" fill="url(#paint3_linear_1:2)"/>
<rect x="707" y="586" width="54" height="10" rx="5" fill="black" fill-opacity="0.1"/>
<rect x="707" y="603" width="102" height="10" rx="5" fill="black" fill-opacity="0.1"/>
<rect x="707" y="620" width="83" height="10" rx="5" fill="black" fill-opacity="0.1"/>
<rect x="710" y="635" width="89" height="8" rx="4" fill="black" fill-opacity="0.1"/>
<rect x="713" y="646" width="48" height="6" rx="3" fill="black" fill-opacity="0.1"/>
<path d="M537 573C537 567.477 541.477 563 547 563H646C651.523 563 656 567.477 656 573V613.681C656 618.524 656.839 623.33 658.479 627.886C659.463 630.619 657.438 633.5 654.533 633.5H546.503C543.501 633.5 540.822 631.617 539.805 628.793C537.949 623.636 537 618.198 537 612.718V573Z" fill="url(#paint4_linear_1:2)"/>
<rect x="543" y="569" width="93" height="10" rx="5" fill="black" fill-opacity="0.1"/>
<rect x="543" y="586" width="72" height="10" rx="5" fill="black" fill-opacity="0.1"/>
<rect x="543" y="603" width="78" height="10" rx="5" fill="black" fill-opacity="0.1"/>
<rect x="546" y="618" width="39" height="8" rx="4" fill="black" fill-opacity="0.1"/>
<path d="M337.945 354V311.812H365.484V286.617H337.945V167.965L309.234 167.086C302.008 167.086 296.148 168.16 291.656 170.309C287.164 172.457 283.941 174.801 281.988 177.34C280.23 179.879 277.203 185.055 272.906 192.867L272.613 193.16L219.586 290.719V311.812H307.77V354H337.945ZM297.809 196.676C299.371 194.723 300.836 193.746 302.203 193.746H307.77V286.617H249.176L297.809 196.676ZM482.965 192.574C484.918 192.965 485.992 194.039 486.188 195.797V326.168C485.797 328.121 484.723 329.195 482.965 329.391H428.766C426.812 329 425.738 327.926 425.543 326.168V195.797C425.934 193.844 427.008 192.77 428.766 192.574H482.965ZM395.074 318.551C395.074 340.23 405.133 352.535 425.25 355.465C428.961 356.051 432.965 356.344 437.262 356.344H474.469C499.078 356.344 512.945 346.969 516.07 328.219C516.461 325.094 516.656 321.871 516.656 318.551V203.414C516.656 182.516 507.477 170.309 489.117 166.793C484.625 166.012 479.742 165.621 474.469 165.621H437.262C413.629 165.621 399.957 174.215 396.246 191.402C395.465 195.113 395.074 199.117 395.074 203.414V318.551ZM654.645 314.742V289.254C654.449 273.629 648.492 263.18 636.773 257.906C647.516 252.242 652.984 242.574 653.18 228.902V206.93C653.18 181.539 640.289 168.16 614.508 166.793C612.555 166.793 610.699 166.793 608.941 166.793L545.367 167.965V193.746H618.609C620.953 194.137 622.223 195.406 622.418 197.555V241.793C622.027 244.137 620.758 245.406 618.609 245.602H561.773V271.09H620.074C622.418 271.48 623.688 272.848 623.883 275.191V324.117C623.492 326.461 622.223 327.73 620.074 327.926H544.488V354L609.527 355.172C633.16 355.562 647.613 346.871 652.887 329.098C654.059 324.605 654.645 319.82 654.645 314.742Z" fill="white"/>
<path d="M337.945 354V364H347.945V354H337.945ZM337.945 311.812V301.812H327.945V311.812H337.945ZM365.484 311.812V321.812H375.484V311.812H365.484ZM365.484 286.617H375.484V276.617H365.484V286.617ZM337.945 286.617H327.945V296.617H337.945V286.617ZM337.945 167.965H347.945V158.266L338.251 157.97L337.945 167.965ZM309.234 167.086L309.54 157.091L309.387 157.086H309.234V167.086ZM281.988 177.34L274.062 171.243L273.909 171.442L273.766 171.648L281.988 177.34ZM272.906 192.867L279.977 199.938L280.983 198.933L281.668 197.686L272.906 192.867ZM272.613 193.16L265.542 186.089L264.519 187.113L263.827 188.385L272.613 193.16ZM219.586 290.719L210.8 285.943L209.586 288.177V290.719H219.586ZM219.586 311.812H209.586V321.812H219.586V311.812ZM307.77 311.812H317.77V301.812H307.77V311.812ZM307.77 354H297.77V364H307.77V354ZM297.809 196.676L290 190.429L289.439 191.13L289.012 191.919L297.809 196.676ZM307.77 193.746H317.77V183.746H307.77V193.746ZM307.77 286.617V296.617H317.77V286.617H307.77ZM249.176 286.617L240.379 281.861L232.4 296.617H249.176V286.617ZM347.945 354V311.812H327.945V354H347.945ZM337.945 321.812H365.484V301.812H337.945V321.812ZM375.484 311.812V286.617H355.484V311.812H375.484ZM365.484 276.617H337.945V296.617H365.484V276.617ZM347.945 286.617V167.965H327.945V286.617H347.945ZM338.251 157.97L309.54 157.091L308.928 177.081L337.639 177.96L338.251 157.97ZM309.234 157.086C301.137 157.086 293.648 158.271 287.342 161.287L295.971 179.33C298.649 178.049 302.878 177.086 309.234 177.086V157.086ZM287.342 161.287C282.143 163.774 277.359 166.957 274.062 171.243L289.915 183.437C290.524 182.644 292.186 181.14 295.971 179.33L287.342 161.287ZM273.766 171.648C271.67 174.676 268.407 180.298 264.144 188.048L281.668 197.686C286 189.811 288.791 185.082 290.21 183.032L273.766 171.648ZM265.835 185.796L265.542 186.089L279.684 200.231L279.977 199.938L265.835 185.796ZM263.827 188.385L210.8 285.943L228.372 295.494L281.399 197.936L263.827 188.385ZM209.586 290.719V311.812H229.586V290.719H209.586ZM219.586 321.812H307.77V301.812H219.586V321.812ZM297.77 311.812V354H317.77V311.812H297.77ZM307.77 364H337.945V344H307.77V364ZM305.617 202.923C306.003 202.441 306.026 202.532 305.626 202.799C305.185 203.093 303.991 203.746 302.203 203.746V183.746C296.035 183.746 291.983 187.95 290 190.429L305.617 202.923ZM302.203 203.746H307.77V183.746H302.203V203.746ZM297.77 193.746V286.617H317.77V193.746H297.77ZM307.77 276.617H249.176V296.617H307.77V276.617ZM257.972 291.374L306.605 201.432L289.012 191.919L240.379 281.861L257.972 291.374ZM482.965 192.574L484.926 182.768L483.955 182.574H482.965V192.574ZM486.188 195.797H496.188V195.243L496.126 194.693L486.188 195.797ZM486.188 326.168L495.993 328.129L496.188 327.158V326.168H486.188ZM482.965 329.391V339.391H483.519L484.069 339.329L482.965 329.391ZM428.766 329.391L426.804 339.196L427.775 339.391H428.766V329.391ZM425.543 326.168H415.543V326.722L415.604 327.272L425.543 326.168ZM425.543 195.797L415.737 193.836L415.543 194.807V195.797H425.543ZM428.766 192.574V182.574H428.212L427.661 182.635L428.766 192.574ZM425.25 355.465L426.81 345.587L426.75 345.578L426.691 345.569L425.25 355.465ZM516.07 328.219L525.934 329.863L525.968 329.662L525.993 329.459L516.07 328.219ZM489.117 166.793L490.998 156.971L490.914 156.955L490.831 156.941L489.117 166.793ZM396.246 191.402L386.471 189.292L386.466 189.317L386.461 189.342L396.246 191.402ZM481.004 202.38C480.638 202.307 479.397 201.977 478.164 200.744C476.84 199.42 476.359 197.891 476.249 196.901L496.126 194.693C495.821 191.945 494.705 189 492.306 186.602C489.999 184.294 487.245 183.232 484.926 182.768L481.004 202.38ZM476.188 195.797V326.168H496.188V195.797H476.188ZM476.382 324.207C476.455 323.841 476.785 322.6 478.018 321.367C479.342 320.043 480.87 319.562 481.861 319.452L484.069 339.329C486.817 339.024 489.761 337.908 492.16 335.51C494.467 333.202 495.53 330.448 495.993 328.129L476.382 324.207ZM482.965 319.391H428.766V339.391H482.965V319.391ZM430.727 319.585C431.092 319.658 432.333 319.988 433.566 321.221C434.89 322.545 435.372 324.074 435.482 325.064L415.604 327.272C415.909 330.02 417.026 332.965 419.424 335.363C421.731 337.67 424.486 338.733 426.804 339.196L430.727 319.585ZM435.543 326.168V195.797H415.543V326.168H435.543ZM435.349 197.758C435.276 198.124 434.946 199.364 433.713 200.597C432.388 201.922 430.86 202.403 429.87 202.513L427.661 182.635C424.913 182.941 421.969 184.057 419.571 186.455C417.263 188.763 416.201 191.517 415.737 193.836L435.349 197.758ZM428.766 202.574H482.965V182.574H428.766V202.574ZM385.074 318.551C385.074 330.861 387.933 341.875 394.876 350.368C401.89 358.949 411.992 363.64 423.809 365.36L426.691 345.569C418.391 344.36 413.405 341.434 410.36 337.71C407.245 333.899 405.074 327.92 405.074 318.551H385.074ZM423.69 365.342C427.984 366.02 432.515 366.344 437.262 366.344V346.344C433.414 346.344 429.938 346.081 426.81 345.587L423.69 365.342ZM437.262 366.344H474.469V346.344H437.262V366.344ZM474.469 366.344C487.881 366.344 499.731 363.814 508.927 357.597C518.449 351.159 523.988 341.54 525.934 329.863L506.206 326.575C505.028 333.648 502.071 338.091 497.725 341.028C493.054 344.186 485.666 346.344 474.469 346.344V366.344ZM525.993 329.459C526.438 325.901 526.656 322.263 526.656 318.551H506.656C506.656 321.479 506.484 324.286 506.148 326.978L525.993 329.459ZM526.656 318.551V203.414H506.656V318.551H526.656ZM526.656 203.414C526.656 191.583 524.061 180.949 517.764 172.575C511.364 164.064 502.045 159.087 490.998 156.971L487.236 176.615C494.549 178.015 498.999 180.898 501.779 184.595C504.662 188.428 506.656 194.347 506.656 203.414H526.656ZM490.831 156.941C485.693 156.047 480.23 155.621 474.469 155.621V175.621C479.255 175.621 483.557 175.976 487.404 176.645L490.831 156.941ZM474.469 155.621H437.262V175.621H474.469V155.621ZM437.262 155.621C424.384 155.621 412.968 157.939 403.961 163.6C394.631 169.465 388.839 178.325 386.471 189.292L406.021 193.513C407.364 187.292 410.263 183.262 414.605 180.533C419.27 177.6 426.506 175.621 437.262 175.621V155.621ZM386.461 189.342C385.519 193.813 385.074 198.515 385.074 203.414H405.074C405.074 199.72 405.41 196.413 406.032 193.462L386.461 189.342ZM385.074 203.414V318.551H405.074V203.414H385.074ZM654.645 289.254H664.645V289.191L664.644 289.129L654.645 289.254ZM636.773 257.906L632.109 249.061L613.985 258.617L632.67 267.025L636.773 257.906ZM653.18 228.902L663.179 229.045L663.18 228.974V228.902H653.18ZM614.508 166.793L615.037 156.807L614.773 156.793H614.508V166.793ZM608.941 166.793V156.793H608.849L608.757 156.795L608.941 166.793ZM545.367 167.965L545.183 157.967L535.367 158.147V167.965H545.367ZM545.367 193.746H535.367V203.746H545.367V193.746ZM618.609 193.746L620.253 183.882L619.437 183.746H618.609V193.746ZM622.418 197.555H632.418V197.101L632.377 196.649L622.418 197.555ZM622.418 241.793L632.282 243.437L632.418 242.621V241.793H622.418ZM618.609 245.602V255.602H619.063L619.515 255.56L618.609 245.602ZM561.773 245.602V235.602H551.773V245.602H561.773ZM561.773 271.09H551.773V281.09H561.773V271.09ZM620.074 271.09L621.718 261.226L620.902 261.09H620.074V271.09ZM623.883 275.191H633.883V274.775L633.848 274.361L623.883 275.191ZM623.883 324.117L633.747 325.761L633.883 324.945V324.117H623.883ZM620.074 327.926V337.926H620.528L620.98 337.885L620.074 327.926ZM544.488 327.926V317.926H534.488V327.926H544.488ZM544.488 354H534.488V363.821L544.308 363.998L544.488 354ZM609.527 355.172L609.347 365.17L609.355 365.17L609.362 365.171L609.527 355.172ZM652.887 329.098L662.474 331.942L662.521 331.783L662.563 331.622L652.887 329.098ZM664.645 314.742V289.254H644.645V314.742H664.645ZM664.644 289.129C664.531 280.115 662.75 271.818 658.718 264.746C654.617 257.553 648.527 252.229 640.877 248.787L632.67 267.025C636.739 268.856 639.486 271.394 641.343 274.651C643.268 278.028 644.563 282.768 644.645 289.379L664.644 289.129ZM641.438 266.752C655.884 259.135 662.939 245.815 663.179 229.045L643.181 228.76C643.03 239.334 639.147 245.35 632.109 249.061L641.438 266.752ZM663.18 228.902V206.93H643.18V228.902H663.18ZM663.18 206.93C663.18 192.613 659.528 180.063 650.713 170.914C641.924 161.792 629.465 157.572 615.037 156.807L613.978 176.779C625.332 177.381 632.209 180.534 636.31 184.791C640.386 189.021 643.18 195.856 643.18 206.93H663.18ZM614.508 156.793C614.504 156.793 614.5 156.793 614.496 156.793C614.493 156.793 614.489 156.793 614.485 156.793C614.481 156.793 614.477 156.793 614.473 156.793C614.47 156.793 614.466 156.793 614.462 156.793C614.458 156.793 614.454 156.793 614.451 156.793C614.447 156.793 614.443 156.793 614.439 156.793C614.435 156.793 614.432 156.793 614.428 156.793C614.424 156.793 614.42 156.793 614.416 156.793C614.413 156.793 614.409 156.793 614.405 156.793C614.401 156.793 614.397 156.793 614.393 156.793C614.39 156.793 614.386 156.793 614.382 156.793C614.378 156.793 614.374 156.793 614.371 156.793C614.367 156.793 614.363 156.793 614.359 156.793C614.355 156.793 614.352 156.793 614.348 156.793C614.344 156.793 614.34 156.793 614.336 156.793C614.333 156.793 614.329 156.793 614.325 156.793C614.321 156.793 614.317 156.793 614.314 156.793C614.31 156.793 614.306 156.793 614.302 156.793C614.298 156.793 614.295 156.793 614.291 156.793C614.287 156.793 614.283 156.793 614.279 156.793C614.276 156.793 614.272 156.793 614.268 156.793C614.264 156.793 614.26 156.793 614.257 156.793C614.253 156.793 614.249 156.793 614.245 156.793C614.241 156.793 614.238 156.793 614.234 156.793C614.23 156.793 614.226 156.793 614.222 156.793C614.219 156.793 614.215 156.793 614.211 156.793C614.207 156.793 614.203 156.793 614.2 156.793C614.196 156.793 614.192 156.793 614.188 156.793C614.184 156.793 614.181 156.793 614.177 156.793C614.173 156.793 614.169 156.793 614.165 156.793C614.162 156.793 614.158 156.793 614.154 156.793C614.15 156.793 614.147 156.793 614.143 156.793C614.139 156.793 614.135 156.793 614.131 156.793C614.128 156.793 614.124 156.793 614.12 156.793C614.116 156.793 614.112 156.793 614.109 156.793C614.105 156.793 614.101 156.793 614.097 156.793C614.093 156.793 614.09 156.793 614.086 156.793C614.082 156.793 614.078 156.793 614.075 156.793C614.071 156.793 614.067 156.793 614.063 156.793C614.059 156.793 614.056 156.793 614.052 156.793C614.048 156.793 614.044 156.793 614.04 156.793C614.037 156.793 614.033 156.793 614.029 156.793C614.025 156.793 614.022 156.793 614.018 156.793C614.014 156.793 614.01 156.793 614.006 156.793C614.003 156.793 613.999 156.793 613.995 156.793C613.991 156.793 613.988 156.793 613.984 156.793C613.98 156.793 613.976 156.793 613.972 156.793C613.969 156.793 613.965 156.793 613.961 156.793C613.957 156.793 613.954 156.793 613.95 156.793C613.946 156.793 613.942 156.793 613.938 156.793C613.935 156.793 613.931 156.793 613.927 156.793C613.923 156.793 613.92 156.793 613.916 156.793C613.912 156.793 613.908 156.793 613.904 156.793C613.901 156.793 613.897 156.793 613.893 156.793C613.889 156.793 613.886 156.793 613.882 156.793C613.878 156.793 613.874 156.793 613.87 156.793C613.867 156.793 613.863 156.793 613.859 156.793C613.855 156.793 613.852 156.793 613.848 156.793C613.844 156.793 613.84 156.793 613.837 156.793C613.833 156.793 613.829 156.793 613.825 156.793C613.821 156.793 613.818 156.793 613.814 156.793C613.81 156.793 613.806 156.793 613.803 156.793C613.799 156.793 613.795 156.793 613.791 156.793C613.788 156.793 613.784 156.793 613.78 156.793C613.776 156.793 613.772 156.793 613.769 156.793C613.765 156.793 613.761 156.793 613.757 156.793C613.754 156.793 613.75 156.793 613.746 156.793C613.742 156.793 613.739 156.793 613.735 156.793C613.731 156.793 613.727 156.793 613.723 156.793C613.72 156.793 613.716 156.793 613.712 156.793C613.708 156.793 613.705 156.793 613.701 156.793C613.697 156.793 613.693 156.793 613.69 156.793C613.686 156.793 613.682 156.793 613.678 156.793C613.675 156.793 613.671 156.793 613.667 156.793C613.663 156.793 613.66 156.793 613.656 156.793C613.652 156.793 613.648 156.793 613.645 156.793C613.641 156.793 613.637 156.793 613.633 156.793C613.629 156.793 613.626 156.793 613.622 156.793C613.618 156.793 613.614 156.793 613.611 156.793C613.607 156.793 613.603 156.793 613.599 156.793C613.596 156.793 613.592 156.793 613.588 156.793C613.584 156.793 613.581 156.793 613.577 156.793C613.573 156.793 613.569 156.793 613.566 156.793C613.562 156.793 613.558 156.793 613.554 156.793C613.551 156.793 613.547 156.793 613.543 156.793C613.539 156.793 613.536 156.793 613.532 156.793C613.528 156.793 613.524 156.793 613.521 156.793C613.517 156.793 613.513 156.793 613.509 156.793C613.506 156.793 613.502 156.793 613.498 156.793C613.494 156.793 613.491 156.793 613.487 156.793C613.483 156.793 613.479 156.793 613.476 156.793C613.472 156.793 613.468 156.793 613.464 156.793C613.461 156.793 613.457 156.793 613.453 156.793C613.449 156.793 613.446 156.793 613.442 156.793C613.438 156.793 613.434 156.793 613.431 156.793C613.427 156.793 613.423 156.793 613.419 156.793C613.416 156.793 613.412 156.793 613.408 156.793C613.405 156.793 613.401 156.793 613.397 156.793C613.393 156.793 613.39 156.793 613.386 156.793C613.382 156.793 613.378 156.793 613.375 156.793C613.371 156.793 613.367 156.793 613.363 156.793C613.36 156.793 613.356 156.793 613.352 156.793C613.348 156.793 613.345 156.793 613.341 156.793C613.337 156.793 613.333 156.793 613.33 156.793C613.326 156.793 613.322 156.793 613.319 156.793C613.315 156.793 613.311 156.793 613.307 156.793C613.304 156.793 613.3 156.793 613.296 156.793C613.292 156.793 613.289 156.793 613.285 156.793C613.281 156.793 613.277 156.793 613.274 156.793C613.27 156.793 613.266 156.793 613.262 156.793C613.259 156.793 613.255 156.793 613.251 156.793C613.248 156.793 613.244 156.793 613.24 156.793C613.236 156.793 613.233 156.793 613.229 156.793C613.225 156.793 613.221 156.793 613.218 156.793C613.214 156.793 613.21 156.793 613.207 156.793C613.203 156.793 613.199 156.793 613.195 156.793C613.192 156.793 613.188 156.793 613.184 156.793C613.18 156.793 613.177 156.793 613.173 156.793C613.169 156.793 613.166 156.793 613.162 156.793C613.158 156.793 613.154 156.793 613.151 156.793C613.147 156.793 613.143 156.793 613.139 156.793C613.136 156.793 613.132 156.793 613.128 156.793C613.125 156.793 613.121 156.793 613.117 156.793C613.113 156.793 613.11 156.793 613.106 156.793C613.102 156.793 613.098 156.793 613.095 156.793C613.091 156.793 613.087 156.793 613.084 156.793C613.08 156.793 613.076 156.793 613.072 156.793C613.069 156.793 613.065 156.793 613.061 156.793C613.058 156.793 613.054 156.793 613.05 156.793C613.046 156.793 613.043 156.793 613.039 156.793C613.035 156.793 613.032 156.793 613.028 156.793C613.024 156.793 613.02 156.793 613.017 156.793C613.013 156.793 613.009 156.793 613.006 156.793C613.002 156.793 612.998 156.793 612.994 156.793C612.991 156.793 612.987 156.793 612.983 156.793C612.98 156.793 612.976 156.793 612.972 156.793C612.968 156.793 612.965 156.793 612.961 156.793C612.957 156.793 612.954 156.793 612.95 156.793C612.946 156.793 612.942 156.793 612.939 156.793C612.935 156.793 612.931 156.793 612.928 156.793C612.924 156.793 612.92 156.793 612.916 156.793C612.913 156.793 612.909 156.793 612.905 156.793C612.902 156.793 612.898 156.793 612.894 156.793C612.89 156.793 612.887 156.793 612.883 156.793C612.879 156.793 612.876 156.793 612.872 156.793C612.868 156.793 612.865 156.793 612.861 156.793C612.857 156.793 612.853 156.793 612.85 156.793C612.846 156.793 612.842 156.793 612.839 156.793C612.835 156.793 612.831 156.793 612.827 156.793C612.824 156.793 612.82 156.793 612.816 156.793C612.813 156.793 612.809 156.793 612.805 156.793C612.802 156.793 612.798 156.793 612.794 156.793C612.79 156.793 612.787 156.793 612.783 156.793C612.779 156.793 612.776 156.793 612.772 156.793C612.768 156.793 612.765 156.793 612.761 156.793C612.757 156.793 612.753 156.793 612.75 156.793C612.746 156.793 612.742 156.793 612.739 156.793C612.735 156.793 612.731 156.793 612.728 156.793C612.724 156.793 612.72 156.793 612.716 156.793C612.713 156.793 612.709 156.793 612.705 156.793C612.702 156.793 612.698 156.793 612.694 156.793C612.691 156.793 612.687 156.793 612.683 156.793C612.68 156.793 612.676 156.793 612.672 156.793C612.668 156.793 612.665 156.793 612.661 156.793C612.657 156.793 612.654 156.793 612.65 156.793C612.646 156.793 612.643 156.793 612.639 156.793C612.635 156.793 612.632 156.793 612.628 156.793C612.624 156.793 612.62 156.793 612.617 156.793C612.613 156.793 612.609 156.793 612.606 156.793C612.602 156.793 612.598 156.793 612.595 156.793C612.591 156.793 612.587 156.793 612.584 156.793C612.58 156.793 612.576 156.793 612.572 156.793C612.569 156.793 612.565 156.793 612.561 156.793C612.558 156.793 612.554 156.793 612.55 156.793C612.547 156.793 612.543 156.793 612.539 156.793C612.536 156.793 612.532 156.793 612.528 156.793C612.525 156.793 612.521 156.793 612.517 156.793C612.514 156.793 612.51 156.793 612.506 156.793C612.502 156.793 612.499 156.793 612.495 156.793C612.491 156.793 612.488 156.793 612.484 156.793C612.48 156.793 612.477 156.793 612.473 156.793C612.469 156.793 612.466 156.793 612.462 156.793C612.458 156.793 612.455 156.793 612.451 156.793C612.447 156.793 612.444 156.793 612.44 156.793C612.436 156.793 612.433 156.793 612.429 156.793C612.425 156.793 612.422 156.793 612.418 156.793C612.414 156.793 612.411 156.793 612.407 156.793C612.403 156.793 612.399 156.793 612.396 156.793C612.392 156.793 612.388 156.793 612.385 156.793C612.381 156.793 612.377 156.793 612.374 156.793C612.37 156.793 612.366 156.793 612.363 156.793C612.359 156.793 612.355 156.793 612.352 156.793C612.348 156.793 612.344 156.793 612.341 156.793C612.337 156.793 612.333 156.793 612.33 156.793C612.326 156.793 612.322 156.793 612.319 156.793C612.315 156.793 612.311 156.793 612.308 156.793C612.304 156.793 612.3 156.793 612.297 156.793C612.293 156.793 612.289 156.793 612.286 156.793C612.282 156.793 612.278 156.793 612.275 156.793C612.271 156.793 612.267 156.793 612.264 156.793C612.26 156.793 612.256 156.793 612.253 156.793C612.249 156.793 612.245 156.793 612.242 156.793C612.238 156.793 612.234 156.793 612.231 156.793C612.227 156.793 612.223 156.793 612.22 156.793C612.216 156.793 612.212 156.793 612.209 156.793C612.205 156.793 612.201 156.793 612.198 156.793C612.194 156.793 612.19 156.793 612.187 156.793C612.183 156.793 612.179 156.793 612.176 156.793C612.172 156.793 612.168 156.793 612.165 156.793C612.161 156.793 612.157 156.793 612.154 156.793C612.15 156.793 612.147 156.793 612.143 156.793C612.139 156.793 612.136 156.793 612.132 156.793C612.128 156.793 612.125 156.793 612.121 156.793C612.117 156.793 612.114 156.793 612.11 156.793C612.106 156.793 612.103 156.793 612.099 156.793C612.095 156.793 612.092 156.793 612.088 156.793C612.084 156.793 612.081 156.793 612.077 156.793C612.073 156.793 612.07 156.793 612.066 156.793C612.062 156.793 612.059 156.793 612.055 156.793C612.052 156.793 612.048 156.793 612.044 156.793C612.041 156.793 612.037 156.793 612.033 156.793C612.03 156.793 612.026 156.793 612.022 156.793C612.019 156.793 612.015 156.793 612.011 156.793C612.008 156.793 612.004 156.793 612 156.793C611.997 156.793 611.993 156.793 611.989 156.793C611.986 156.793 611.982 156.793 611.979 156.793C611.975 156.793 611.971 156.793 611.968 156.793C611.964 156.793 611.96 156.793 611.957 156.793C611.953 156.793 611.949 156.793 611.946 156.793C611.942 156.793 611.938 156.793 611.935 156.793C611.931 156.793 611.928 156.793 611.924 156.793C611.92 156.793 611.917 156.793 611.913 156.793C611.909 156.793 611.906 156.793 611.902 156.793C611.898 156.793 611.895 156.793 611.891 156.793C611.887 156.793 611.884 156.793 611.88 156.793C611.877 156.793 611.873 156.793 611.869 156.793C611.866 156.793 611.862 156.793 611.858 156.793C611.855 156.793 611.851 156.793 611.847 156.793C611.844 156.793 611.84 156.793 611.837 156.793C611.833 156.793 611.829 156.793 611.826 156.793C611.822 156.793 611.818 156.793 611.815 156.793C611.811 156.793 611.807 156.793 611.804 156.793C611.8 156.793 611.797 156.793 611.793 156.793C611.789 156.793 611.786 156.793 611.782 156.793C611.778 156.793 611.775 156.793 611.771 156.793C611.767 156.793 611.764 156.793 611.76 156.793C611.757 156.793 611.753 156.793 611.749 156.793C611.746 156.793 611.742 156.793 611.738 156.793C611.735 156.793 611.731 156.793 611.728 156.793C611.724 156.793 611.72 156.793 611.717 156.793C611.713 156.793 611.709 156.793 611.706 156.793C611.702 156.793 611.698 156.793 611.695 156.793C611.691 156.793 611.688 156.793 611.684 156.793C611.68 156.793 611.677 156.793 611.673 156.793C611.669 156.793 611.666 156.793 611.662 156.793C611.659 156.793 611.655 156.793 611.651 156.793C611.648 156.793 611.644 156.793 611.64 156.793C611.637 156.793 611.633 156.793 611.63 156.793C611.626 156.793 611.622 156.793 611.619 156.793C611.615 156.793 611.612 156.793 611.608 156.793C611.604 156.793 611.601 156.793 611.597 156.793C611.593 156.793 611.59 156.793 611.586 156.793C611.583 156.793 611.579 156.793 611.575 156.793C611.572 156.793 611.568 156.793 611.564 156.793C611.561 156.793 611.557 156.793 611.554 156.793C611.55 156.793 611.546 156.793 611.543 156.793C611.539 156.793 611.536 156.793 611.532 156.793C611.528 156.793 611.525 156.793 611.521 156.793C611.517 156.793 611.514 156.793 611.51 156.793C611.507 156.793 611.503 156.793 611.499 156.793C611.496 156.793 611.492 156.793 611.489 156.793C611.485 156.793 611.481 156.793 611.478 156.793C611.474 156.793 611.47 156.793 611.467 156.793C611.463 156.793 611.46 156.793 611.456 156.793C611.452 156.793 611.449 156.793 611.445 156.793C611.442 156.793 611.438 156.793 611.434 156.793C611.431 156.793 611.427 156.793 611.424 156.793C611.42 156.793 611.416 156.793 611.413 156.793C611.409 156.793 611.406 156.793 611.402 156.793C611.398 156.793 611.395 156.793 611.391 156.793C611.387 156.793 611.384 156.793 611.38 156.793C611.377 156.793 611.373 156.793 611.369 156.793C611.366 156.793 611.362 156.793 611.359 156.793C611.355 156.793 611.351 156.793 611.348 156.793C611.344 156.793 611.341 156.793 611.337 156.793C611.333 156.793 611.33 156.793 611.326 156.793C611.323 156.793 611.319 156.793 611.315 156.793C611.312 156.793 611.308 156.793 611.305 156.793C611.301 156.793 611.297 156.793 611.294 156.793C611.29 156.793 611.287 156.793 611.283 156.793C611.279 156.793 611.276 156.793 611.272 156.793C611.269 156.793 611.265 156.793 611.261 156.793C611.258 156.793 611.254 156.793 611.251 156.793C611.247 156.793 611.243 156.793 611.24 156.793C611.236 156.793 611.233 156.793 611.229 156.793C611.225 156.793 611.222 156.793 611.218 156.793C611.215 156.793 611.211 156.793 611.207 156.793C611.204 156.793 611.2 156.793 611.197 156.793C611.193 156.793 611.19 156.793 611.186 156.793C611.182 156.793 611.179 156.793 611.175 156.793C611.172 156.793 611.168 156.793 611.164 156.793C611.161 156.793 611.157 156.793 611.154 156.793C611.15 156.793 611.146 156.793 611.143 156.793C611.139 156.793 611.136 156.793 611.132 156.793C611.129 156.793 611.125 156.793 611.121 156.793C611.118 156.793 611.114 156.793 611.111 156.793C611.107 156.793 611.103 156.793 611.1 156.793C611.096 156.793 611.093 156.793 611.089 156.793C611.085 156.793 611.082 156.793 611.078 156.793C611.075 156.793 611.071 156.793 611.068 156.793C611.064 156.793 611.06 156.793 611.057 156.793C611.053 156.793 611.05 156.793 611.046 156.793C611.042 156.793 611.039 156.793 611.035 156.793C611.032 156.793 611.028 156.793 611.025 156.793C611.021 156.793 611.017 156.793 611.014 156.793C611.01 156.793 611.007 156.793 611.003 156.793C610.999 156.793 610.996 156.793 610.992 156.793C610.989 156.793 610.985 156.793 610.982 156.793C610.978 156.793 610.974 156.793 610.971 156.793C610.967 156.793 610.964 156.793 610.96 156.793C610.957 156.793 610.953 156.793 610.949 156.793C610.946 156.793 610.942 156.793 610.939 156.793C610.935 156.793 610.932 156.793 610.928 156.793C610.924 156.793 610.921 156.793 610.917 156.793C610.914 156.793 610.91 156.793 610.907 156.793C610.903 156.793 610.899 156.793 610.896 156.793C610.892 156.793 610.889 156.793 610.885 156.793C610.882 156.793 610.878 156.793 610.874 156.793C610.871 156.793 610.867 156.793 610.864 156.793C610.86 156.793 610.857 156.793 610.853 156.793C610.849 156.793 610.846 156.793 610.842 156.793C610.839 156.793 610.835 156.793 610.832 156.793C610.828 156.793 610.824 156.793 610.821 156.793C610.817 156.793 610.814 156.793 610.81 156.793C610.807 156.793 610.803 156.793 610.799 156.793C610.796 156.793 610.792 156.793 610.789 156.793C610.785 156.793 610.782 156.793 610.778 156.793C610.775 156.793 610.771 156.793 610.767 156.793C610.764 156.793 610.76 156.793 610.757 156.793C610.753 156.793 610.75 156.793 610.746 156.793C610.742 156.793 610.739 156.793 610.735 156.793C610.732 156.793 610.728 156.793 610.725 156.793C610.721 156.793 610.718 156.793 610.714 156.793C610.71 156.793 610.707 156.793 610.703 156.793C610.7 156.793 610.696 156.793 610.693 156.793C610.689 156.793 610.686 156.793 610.682 156.793C610.678 156.793 610.675 156.793 610.671 156.793C610.668 156.793 610.664 156.793 610.661 156.793C610.657 156.793 610.654 156.793 610.65 156.793C610.646 156.793 610.643 156.793 610.639 156.793C610.636 156.793 610.632 156.793 610.629 156.793C610.625 156.793 610.622 156.793 610.618 156.793C610.614 156.793 610.611 156.793 610.607 156.793C610.604 156.793 610.6 156.793 610.597 156.793C610.593 156.793 610.59 156.793 610.586 156.793C610.582 156.793 610.579 156.793 610.575 156.793C610.572 156.793 610.568 156.793 610.565 156.793C610.561 156.793 610.558 156.793 610.554 156.793C610.551 156.793 610.547 156.793 610.543 156.793C610.54 156.793 610.536 156.793 610.533 156.793C610.529 156.793 610.526 156.793 610.522 156.793C610.519 156.793 610.515 156.793 610.512 156.793C610.508 156.793 610.504 156.793 610.501 156.793C610.497 156.793 610.494 156.793 610.49 156.793C610.487 156.793 610.483 156.793 610.48 156.793C610.476 156.793 610.473 156.793 610.469 156.793C610.465 156.793 610.462 156.793 610.458 156.793C610.455 156.793 610.451 156.793 610.448 156.793C610.444 156.793 610.441 156.793 610.437 156.793C610.434 156.793 610.43 156.793 610.426 156.793C610.423 156.793 610.419 156.793 610.416 156.793C610.412 156.793 610.409 156.793 610.405 156.793C610.402 156.793 610.398 156.793 610.395 156.793C610.391 156.793 610.388 156.793 610.384 156.793C610.381 156.793 610.377 156.793 610.373 156.793C610.37 156.793 610.366 156.793 610.363 156.793C610.359 156.793 610.356 156.793 610.352 156.793C610.349 156.793 610.345 156.793 610.342 156.793C610.338 156.793 610.335 156.793 610.331 156.793C610.328 156.793 610.324 156.793 610.32 156.793C610.317 156.793 610.313 156.793 610.31 156.793C610.306 156.793 610.303 156.793 610.299 156.793C610.296 156.793 610.292 156.793 610.289 156.793C610.285 156.793 610.282 156.793 610.278 156.793C610.275 156.793 610.271 156.793 610.267 156.793C610.264 156.793 610.26 156.793 610.257 156.793C610.253 156.793 610.25 156.793 610.246 156.793C610.243 156.793 610.239 156.793 610.236 156.793C610.232 156.793 610.229 156.793 610.225 156.793C610.222 156.793 610.218 156.793 610.215 156.793C610.211 156.793 610.208 156.793 610.204 156.793C610.201 156.793 610.197 156.793 610.193 156.793C610.19 156.793 610.186 156.793 610.183 156.793C610.179 156.793 610.176 156.793 610.172 156.793C610.169 156.793 610.165 156.793 610.162 156.793C610.158 156.793 610.155 156.793 610.151 156.793C610.148 156.793 610.144 156.793 610.141 156.793C610.137 156.793 610.134 156.793 610.13 156.793C610.127 156.793 610.123 156.793 610.12 156.793C610.116 156.793 610.113 156.793 610.109 156.793C610.105 156.793 610.102 156.793 610.098 156.793C610.095 156.793 610.091 156.793 610.088 156.793C610.084 156.793 610.081 156.793 610.077 156.793C610.074 156.793 610.07 156.793 610.067 156.793C610.063 156.793 610.06 156.793 610.056 156.793C610.053 156.793 610.049 156.793 610.046 156.793C610.042 156.793 610.039 156.793 610.035 156.793C610.032 156.793 610.028 156.793 610.025 156.793C610.021 156.793 610.018 156.793 610.014 156.793C610.011 156.793 610.007 156.793 610.004 156.793C610 156.793 609.997 156.793 609.993 156.793C609.99 156.793 609.986 156.793 609.983 156.793C609.979 156.793 609.976 156.793 609.972 156.793C609.969 156.793 609.965 156.793 609.962 156.793C609.958 156.793 609.954 156.793 609.951 156.793C609.947 156.793 609.944 156.793 609.94 156.793C609.937 156.793 609.933 156.793 609.93 156.793C609.926 156.793 609.923 156.793 609.919 156.793C609.916 156.793 609.912 156.793 609.909 156.793C609.905 156.793 609.902 156.793 609.898 156.793C609.895 156.793 609.891 156.793 609.888 156.793C609.884 156.793 609.881 156.793 609.877 156.793C609.874 156.793 609.87 156.793 609.867 156.793C609.863 156.793 609.86 156.793 609.856 156.793C609.853 156.793 609.849 156.793 609.846 156.793C609.842 156.793 609.839 156.793 609.835 156.793C609.832 156.793 609.828 156.793 609.825 156.793C609.821 156.793 609.818 156.793 609.814 156.793C609.811 156.793 609.807 156.793 609.804 156.793C609.8 156.793 609.797 156.793 609.793 156.793C609.79 156.793 609.787 156.793 609.783 156.793C609.78 156.793 609.776 156.793 609.773 156.793C609.769 156.793 609.766 156.793 609.762 156.793C609.759 156.793 609.755 156.793 609.752 156.793C609.748 156.793 609.745 156.793 609.741 156.793C609.738 156.793 609.734 156.793 609.731 156.793C609.727 156.793 609.724 156.793 609.72 156.793C609.717 156.793 609.713 156.793 609.71 156.793C609.706 156.793 609.703 156.793 609.699 156.793C609.696 156.793 609.692 156.793 609.689 156.793C609.685 156.793 609.682 156.793 609.678 156.793C609.675 156.793 609.671 156.793 609.668 156.793C609.664 156.793 609.661 156.793 609.657 156.793C609.654 156.793 609.65 156.793 609.647 156.793C609.643 156.793 609.64 156.793 609.637 156.793C609.633 156.793 609.63 156.793 609.626 156.793C609.623 156.793 609.619 156.793 609.616 156.793C609.612 156.793 609.609 156.793 609.605 156.793C609.602 156.793 609.598 156.793 609.595 156.793C609.591 156.793 609.588 156.793 609.584 156.793C609.581 156.793 609.577 156.793 609.574 156.793C609.57 156.793 609.567 156.793 609.563 156.793C609.56 156.793 609.556 156.793 609.553 156.793C609.55 156.793 609.546 156.793 609.543 156.793C609.539 156.793 609.536 156.793 609.532 156.793C609.529 156.793 609.525 156.793 609.522 156.793C609.518 156.793 609.515 156.793 609.511 156.793C609.508 156.793 609.504 156.793 609.501 156.793C609.497 156.793 609.494 156.793 609.49 156.793C609.487 156.793 609.483 156.793 609.48 156.793C609.477 156.793 609.473 156.793 609.47 156.793C609.466 156.793 609.463 156.793 609.459 156.793C609.456 156.793 609.452 156.793 609.449 156.793C609.445 156.793 609.442 156.793 609.438 156.793C609.435 156.793 609.431 156.793 609.428 156.793C609.424 156.793 609.421 156.793 609.418 156.793C609.414 156.793 609.411 156.793 609.407 156.793C609.404 156.793 609.4 156.793 609.397 156.793C609.393 156.793 609.39 156.793 609.386 156.793C609.383 156.793 609.379 156.793 609.376 156.793C609.372 156.793 609.369 156.793 609.366 156.793C609.362 156.793 609.359 156.793 609.355 156.793C609.352 156.793 609.348 156.793 609.345 156.793C609.341 156.793 609.338 156.793 609.334 156.793C609.331 156.793 609.327 156.793 609.324 156.793C609.321 156.793 609.317 156.793 609.314 156.793C609.31 156.793 609.307 156.793 609.303 156.793C609.3 156.793 609.296 156.793 609.293 156.793C609.289 156.793 609.286 156.793 609.283 156.793C609.279 156.793 609.276 156.793 609.272 156.793C609.269 156.793 609.265 156.793 609.262 156.793C609.258 156.793 609.255 156.793 609.251 156.793C609.248 156.793 609.244 156.793 609.241 156.793C609.238 156.793 609.234 156.793 609.231 156.793C609.227 156.793 609.224 156.793 609.22 156.793C609.217 156.793 609.213 156.793 609.21 156.793C609.207 156.793 609.203 156.793 609.2 156.793C609.196 156.793 609.193 156.793 609.189 156.793C609.186 156.793 609.182 156.793 609.179 156.793C609.175 156.793 609.172 156.793 609.169 156.793C609.165 156.793 609.162 156.793 609.158 156.793C609.155 156.793 609.151 156.793 609.148 156.793C609.144 156.793 609.141 156.793 609.138 156.793C609.134 156.793 609.131 156.793 609.127 156.793C609.124 156.793 609.12 156.793 609.117 156.793C609.113 156.793 609.11 156.793 609.106 156.793C609.103 156.793 609.1 156.793 609.096 156.793C609.093 156.793 609.089 156.793 609.086 156.793C609.082 156.793 609.079 156.793 609.075 156.793C609.072 156.793 609.069 156.793 609.065 156.793C609.062 156.793 609.058 156.793 609.055 156.793C609.051 156.793 609.048 156.793 609.045 156.793C609.041 156.793 609.038 156.793 609.034 156.793C609.031 156.793 609.027 156.793 609.024 156.793C609.02 156.793 609.017 156.793 609.014 156.793C609.01 156.793 609.007 156.793 609.003 156.793C609 156.793 608.996 156.793 608.993 156.793C608.989 156.793 608.986 156.793 608.983 156.793C608.979 156.793 608.976 156.793 608.972 156.793C608.969 156.793 608.965 156.793 608.962 156.793C608.959 156.793 608.955 156.793 608.952 156.793C608.948 156.793 608.945 156.793 608.941 156.793V176.793C608.945 176.793 608.948 176.793 608.952 176.793C608.955 176.793 608.959 176.793 608.962 176.793C608.965 176.793 608.969 176.793 608.972 176.793C608.976 176.793 608.979 176.793 608.983 176.793C608.986 176.793 608.989 176.793 608.993 176.793C608.996 176.793 609 176.793 609.003 176.793C609.007 176.793 609.01 176.793 609.014 176.793C609.017 176.793 609.02 176.793 609.024 176.793C609.027 176.793 609.031 176.793 609.034 176.793C609.038 176.793 609.041 176.793 609.045 176.793C609.048 176.793 609.051 176.793 609.055 176.793C609.058 176.793 609.062 176.793 609.065 176.793C609.069 176.793 609.072 176.793 609.075 176.793C609.079 176.793 609.082 176.793 609.086 176.793C609.089 176.793 609.093 176.793 609.096 176.793C609.1 176.793 609.103 176.793 609.106 176.793C609.11 176.793 609.113 176.793 609.117 176.793C609.12 176.793 609.124 176.793 609.127 176.793C609.131 176.793 609.134 176.793 609.138 176.793C609.141 176.793 609.144 176.793 609.148 176.793C609.151 176.793 609.155 176.793 609.158 176.793C609.162 176.793 609.165 176.793 609.169 176.793C609.172 176.793 609.175 176.793 609.179 176.793C609.182 176.793 609.186 176.793 609.189 176.793C609.193 176.793 609.196 176.793 609.2 176.793C609.203 176.793 609.207 176.793 609.21 176.793C609.213 176.793 609.217 176.793 609.22 176.793C609.224 176.793 609.227 176.793 609.231 176.793C609.234 176.793 609.238 176.793 609.241 176.793C609.244 176.793 609.248 176.793 609.251 176.793C609.255 176.793 609.258 176.793 609.262 176.793C609.265 176.793 609.269 176.793 609.272 176.793C609.276 176.793 609.279 176.793 609.283 176.793C609.286 176.793 609.289 176.793 609.293 176.793C609.296 176.793 609.3 176.793 609.303 176.793C609.307 176.793 609.31 176.793 609.314 176.793C609.317 176.793 609.321 176.793 609.324 176.793C609.327 176.793 609.331 176.793 609.334 176.793C609.338 176.793 609.341 176.793 609.345 176.793C609.348 176.793 609.352 176.793 609.355 176.793C609.359 176.793 609.362 176.793 609.366 176.793C609.369 176.793 609.372 176.793 609.376 176.793C609.379 176.793 609.383 176.793 609.386 176.793C609.39 176.793 609.393 176.793 609.397 176.793C609.4 176.793 609.404 176.793 609.407 176.793C609.411 176.793 609.414 176.793 609.418 176.793C609.421 176.793 609.424 176.793 609.428 176.793C609.431 176.793 609.435 176.793 609.438 176.793C609.442 176.793 609.445 176.793 609.449 176.793C609.452 176.793 609.456 176.793 609.459 176.793C609.463 176.793 609.466 176.793 609.47 176.793C609.473 176.793 609.477 176.793 609.48 176.793C609.483 176.793 609.487 176.793 609.49 176.793C609.494 176.793 609.497 176.793 609.501 176.793C609.504 176.793 609.508 176.793 609.511 176.793C609.515 176.793 609.518 176.793 609.522 176.793C609.525 176.793 609.529 176.793 609.532 176.793C609.536 176.793 609.539 176.793 609.543 176.793C609.546 176.793 609.55 176.793 609.553 176.793C609.556 176.793 609.56 176.793 609.563 176.793C609.567 176.793 609.57 176.793 609.574 176.793C609.577 176.793 609.581 176.793 609.584 176.793C609.588 176.793 609.591 176.793 609.595 176.793C609.598 176.793 609.602 176.793 609.605 176.793C609.609 176.793 609.612 176.793 609.616 176.793C609.619 176.793 609.623 176.793 609.626 176.793C609.63 176.793 609.633 176.793 609.637 176.793C609.64 176.793 609.643 176.793 609.647 176.793C609.65 176.793 609.654 176.793 609.657 176.793C609.661 176.793 609.664 176.793 609.668 176.793C609.671 176.793 609.675 176.793 609.678 176.793C609.682 176.793 609.685 176.793 609.689 176.793C609.692 176.793 609.696 176.793 609.699 176.793C609.703 176.793 609.706 176.793 609.71 176.793C609.713 176.793 609.717 176.793 609.72 176.793C609.724 176.793 609.727 176.793 609.731 176.793C609.734 176.793 609.738 176.793 609.741 176.793C609.745 176.793 609.748 176.793 609.752 176.793C609.755 176.793 609.759 176.793 609.762 176.793C609.766 176.793 609.769 176.793 609.773 176.793C609.776 176.793 609.78 176.793 609.783 176.793C609.787 176.793 609.79 176.793 609.793 176.793C609.797 176.793 609.8 176.793 609.804 176.793C609.807 176.793 609.811 176.793 609.814 176.793C609.818 176.793 609.821 176.793 609.825 176.793C609.828 176.793 609.832 176.793 609.835 176.793C609.839 176.793 609.842 176.793 609.846 176.793C609.849 176.793 609.853 176.793 609.856 176.793C609.86 176.793 609.863 176.793 609.867 176.793C609.87 176.793 609.874 176.793 609.877 176.793C609.881 176.793 609.884 176.793 609.888 176.793C609.891 176.793 609.895 176.793 609.898 176.793C609.902 176.793 609.905 176.793 609.909 176.793C609.912 176.793 609.916 176.793 609.919 176.793C609.923 176.793 609.926 176.793 609.93 176.793C609.933 176.793 609.937 176.793 609.94 176.793C609.944 176.793 609.947 176.793 609.951 176.793C609.954 176.793 609.958 176.793 609.962 176.793C609.965 176.793 609.969 176.793 609.972 176.793C609.976 176.793 609.979 176.793 609.983 176.793C609.986 176.793 609.99 176.793 609.993 176.793C609.997 176.793 610 176.793 610.004 176.793C610.007 176.793 610.011 176.793 610.014 176.793C610.018 176.793 610.021 176.793 610.025 176.793C610.028 176.793 610.032 176.793 610.035 176.793C610.039 176.793 610.042 176.793 610.046 176.793C610.049 176.793 610.053 176.793 610.056 176.793C610.06 176.793 610.063 176.793 610.067 176.793C610.07 176.793 610.074 176.793 610.077 176.793C610.081 176.793 610.084 176.793 610.088 176.793C610.091 176.793 610.095 176.793 610.098 176.793C610.102 176.793 610.105 176.793 610.109 176.793C610.113 176.793 610.116 176.793 610.12 176.793C610.123 176.793 610.127 176.793 610.13 176.793C610.134 176.793 610.137 176.793 610.141 176.793C610.144 176.793 610.148 176.793 610.151 176.793C610.155 176.793 610.158 176.793 610.162 176.793C610.165 176.793 610.169 176.793 610.172 176.793C610.176 176.793 610.179 176.793 610.183 176.793C610.186 176.793 610.19 176.793 610.193 176.793C610.197 176.793 610.201 176.793 610.204 176.793C610.208 176.793 610.211 176.793 610.215 176.793C610.218 176.793 610.222 176.793 610.225 176.793C610.229 176.793 610.232 176.793 610.236 176.793C610.239 176.793 610.243 176.793 610.246 176.793C610.25 176.793 610.253 176.793 610.257 176.793C610.26 176.793 610.264 176.793 610.267 176.793C610.271 176.793 610.275 176.793 610.278 176.793C610.282 176.793 610.285 176.793 610.289 176.793C610.292 176.793 610.296 176.793 610.299 176.793C610.303 176.793 610.306 176.793 610.31 176.793C610.313 176.793 610.317 176.793 610.32 176.793C610.324 176.793 610.328 176.793 610.331 176.793C610.335 176.793 610.338 176.793 610.342 176.793C610.345 176.793 610.349 176.793 610.352 176.793C610.356 176.793 610.359 176.793 610.363 176.793C610.366 176.793 610.37 176.793 610.373 176.793C610.377 176.793 610.381 176.793 610.384 176.793C610.388 176.793 610.391 176.793 610.395 176.793C610.398 176.793 610.402 176.793 610.405 176.793C610.409 176.793 610.412 176.793 610.416 176.793C610.419 176.793 610.423 176.793 610.426 176.793C610.43 176.793 610.434 176.793 610.437 176.793C610.441 176.793 610.444 176.793 610.448 176.793C610.451 176.793 610.455 176.793 610.458 176.793C610.462 176.793 610.465 176.793 610.469 176.793C610.473 176.793 610.476 176.793 610.48 176.793C610.483 176.793 610.487 176.793 610.49 176.793C610.494 176.793 610.497 176.793 610.501 176.793C610.504 176.793 610.508 176.793 610.512 176.793C610.515 176.793 610.519 176.793 610.522 176.793C610.526 176.793 610.529 176.793 610.533 176.793C610.536 176.793 610.54 176.793 610.543 176.793C610.547 176.793 610.551 176.793 610.554 176.793C610.558 176.793 610.561 176.793 610.565 176.793C610.568 176.793 610.572 176.793 610.575 176.793C610.579 176.793 610.582 176.793 610.586 176.793C610.59 176.793 610.593 176.793 610.597 176.793C610.6 176.793 610.604 176.793 610.607 176.793C610.611 176.793 610.614 176.793 610.618 176.793C610.622 176.793 610.625 176.793 610.629 176.793C610.632 176.793 610.636 176.793 610.639 176.793C610.643 176.793 610.646 176.793 610.65 176.793C610.654 176.793 610.657 176.793 610.661 176.793C610.664 176.793 610.668 176.793 610.671 176.793C610.675 176.793 610.678 176.793 610.682 176.793C610.686 176.793 610.689 176.793 610.693 176.793C610.696 176.793 610.7 176.793 610.703 176.793C610.707 176.793 610.71 176.793 610.714 176.793C610.718 176.793 610.721 176.793 610.725 176.793C610.728 176.793 610.732 176.793 610.735 176.793C610.739 176.793 610.742 176.793 610.746 176.793C610.75 176.793 610.753 176.793 610.757 176.793C610.76 176.793 610.764 176.793 610.767 176.793C610.771 176.793 610.775 176.793 610.778 176.793C610.782 176.793 610.785 176.793 610.789 176.793C610.792 176.793 610.796 176.793 610.799 176.793C610.803 176.793 610.807 176.793 610.81 176.793C610.814 176.793 610.817 176.793 610.821 176.793C610.824 176.793 610.828 176.793 610.832 176.793C610.835 176.793 610.839 176.793 610.842 176.793C610.846 176.793 610.849 176.793 610.853 176.793C610.857 176.793 610.86 176.793 610.864 176.793C610.867 176.793 610.871 176.793 610.874 176.793C610.878 176.793 610.882 176.793 610.885 176.793C610.889 176.793 610.892 176.793 610.896 176.793C610.899 176.793 610.903 176.793 610.907 176.793C610.91 176.793 610.914 176.793 610.917 176.793C610.921 176.793 610.924 176.793 610.928 176.793C610.932 176.793 610.935 176.793 610.939 176.793C610.942 176.793 610.946 176.793 610.949 176.793C610.953 176.793 610.957 176.793 610.96 176.793C610.964 176.793 610.967 176.793 610.971 176.793C610.974 176.793 610.978 176.793 610.982 176.793C610.985 176.793 610.989 176.793 610.992 176.793C610.996 176.793 610.999 176.793 611.003 176.793C611.007 176.793 611.01 176.793 611.014 176.793C611.017 176.793 611.021 176.793 611.025 176.793C611.028 176.793 611.032 176.793 611.035 176.793C611.039 176.793 611.042 176.793 611.046 176.793C611.05 176.793 611.053 176.793 611.057 176.793C611.06 176.793 611.064 176.793 611.068 176.793C611.071 176.793 611.075 176.793 611.078 176.793C611.082 176.793 611.085 176.793 611.089 176.793C611.093 176.793 611.096 176.793 611.1 176.793C611.103 176.793 611.107 176.793 611.111 176.793C611.114 176.793 611.118 176.793 611.121 176.793C611.125 176.793 611.129 176.793 611.132 176.793C611.136 176.793 611.139 176.793 611.143 176.793C611.146 176.793 611.15 176.793 611.154 176.793C611.157 176.793 611.161 176.793 611.164 176.793C611.168 176.793 611.172 176.793 611.175 176.793C611.179 176.793 611.182 176.793 611.186 176.793C611.19 176.793 611.193 176.793 611.197 176.793C611.2 176.793 611.204 176.793 611.207 176.793C611.211 176.793 611.215 176.793 611.218 176.793C611.222 176.793 611.225 176.793 611.229 176.793C611.233 176.793 611.236 176.793 611.24 176.793C611.243 176.793 611.247 176.793 611.251 176.793C611.254 176.793 611.258 176.793 611.261 176.793C611.265 176.793 611.269 176.793 611.272 176.793C611.276 176.793 611.279 176.793 611.283 176.793C611.287 176.793 611.29 176.793 611.294 176.793C611.297 176.793 611.301 176.793 611.305 176.793C611.308 176.793 611.312 176.793 611.315 176.793C611.319 176.793 611.323 176.793 611.326 176.793C611.33 176.793 611.333 176.793 611.337 176.793C611.341 176.793 611.344 176.793 611.348 176.793C611.351 176.793 611.355 176.793 611.359 176.793C611.362 176.793 611.366 176.793 611.369 176.793C611.373 176.793 611.377 176.793 611.38 176.793C611.384 176.793 611.387 176.793 611.391 176.793C611.395 176.793 611.398 176.793 611.402 176.793C611.406 176.793 611.409 176.793 611.413 176.793C611.416 176.793 611.42 176.793 611.424 176.793C611.427 176.793 611.431 176.793 611.434 176.793C611.438 176.793 611.442 176.793 611.445 176.793C611.449 176.793 611.452 176.793 611.456 176.793C611.46 176.793 611.463 176.793 611.467 176.793C611.47 176.793 611.474 176.793 611.478 176.793C611.481 176.793 611.485 176.793 611.489 176.793C611.492 176.793 611.496 176.793 611.499 176.793C611.503 176.793 611.507 176.793 611.51 176.793C611.514 176.793 611.517 176.793 611.521 176.793C611.525 176.793 611.528 176.793 611.532 176.793C611.536 176.793 611.539 176.793 611.543 176.793C611.546 176.793 611.55 176.793 611.554 176.793C611.557 176.793 611.561 176.793 611.564 176.793C611.568 176.793 611.572 176.793 611.575 176.793C611.579 176.793 611.583 176.793 611.586 176.793C611.59 176.793 611.593 176.793 611.597 176.793C611.601 176.793 611.604 176.793 611.608 176.793C611.612 176.793 611.615 176.793 611.619 176.793C611.622 176.793 611.626 176.793 611.63 176.793C611.633 176.793 611.637 176.793 611.64 176.793C611.644 176.793 611.648 176.793 611.651 176.793C611.655 176.793 611.659 176.793 611.662 176.793C611.666 176.793 611.669 176.793 611.673 176.793C611.677 176.793 611.68 176.793 611.684 176.793C611.688 176.793 611.691 176.793 611.695 176.793C611.698 176.793 611.702 176.793 611.706 176.793C611.709 176.793 611.713 176.793 611.717 176.793C611.72 176.793 611.724 176.793 611.728 176.793C611.731 176.793 611.735 176.793 611.738 176.793C611.742 176.793 611.746 176.793 611.749 176.793C611.753 176.793 611.757 176.793 611.76 176.793C611.764 176.793 611.767 176.793 611.771 176.793C611.775 176.793 611.778 176.793 611.782 176.793C611.786 176.793 611.789 176.793 611.793 176.793C611.797 176.793 611.8 176.793 611.804 176.793C611.807 176.793 611.811 176.793 611.815 176.793C611.818 176.793 611.822 176.793 611.826 176.793C611.829 176.793 611.833 176.793 611.837 176.793C611.84 176.793 611.844 176.793 611.847 176.793C611.851 176.793 611.855 176.793 611.858 176.793C611.862 176.793 611.866 176.793 611.869 176.793C611.873 176.793 611.877 176.793 611.88 176.793C611.884 176.793 611.887 176.793 611.891 176.793C611.895 176.793 611.898 176.793 611.902 176.793C611.906 176.793 611.909 176.793 611.913 176.793C611.917 176.793 611.92 176.793 611.924 176.793C611.928 176.793 611.931 176.793 611.935 176.793C611.938 176.793 611.942 176.793 611.946 176.793C611.949 176.793 611.953 176.793 611.957 176.793C611.96 176.793 611.964 176.793 611.968 176.793C611.971 176.793 611.975 176.793 611.979 176.793C611.982 176.793 611.986 176.793 611.989 176.793C611.993 176.793 611.997 176.793 612 176.793C612.004 176.793 612.008 176.793 612.011 176.793C612.015 176.793 612.019 176.793 612.022 176.793C612.026 176.793 612.03 176.793 612.033 176.793C612.037 176.793 612.041 176.793 612.044 176.793C612.048 176.793 612.052 176.793 612.055 176.793C612.059 176.793 612.062 176.793 612.066 176.793C612.07 176.793 612.073 176.793 612.077 176.793C612.081 176.793 612.084 176.793 612.088 176.793C612.092 176.793 612.095 176.793 612.099 176.793C612.103 176.793 612.106 176.793 612.11 176.793C612.114 176.793 612.117 176.793 612.121 176.793C612.125 176.793 612.128 176.793 612.132 176.793C612.136 176.793 612.139 176.793 612.143 176.793C612.147 176.793 612.15 176.793 612.154 176.793C612.157 176.793 612.161 176.793 612.165 176.793C612.168 176.793 612.172 176.793 612.176 176.793C612.179 176.793 612.183 176.793 612.187 176.793C612.19 176.793 612.194 176.793 612.198 176.793C612.201 176.793 612.205 176.793 612.209 176.793C612.212 176.793 612.216 176.793 612.22 176.793C612.223 176.793 612.227 176.793 612.231 176.793C612.234 176.793 612.238 176.793 612.242 176.793C612.245 176.793 612.249 176.793 612.253 176.793C612.256 176.793 612.26 176.793 612.264 176.793C612.267 176.793 612.271 176.793 612.275 176.793C612.278 176.793 612.282 176.793 612.286 176.793C612.289 176.793 612.293 176.793 612.297 176.793C612.3 176.793 612.304 176.793 612.308 176.793C612.311 176.793 612.315 176.793 612.319 176.793C612.322 176.793 612.326 176.793 612.33 176.793C612.333 176.793 612.337 176.793 612.341 176.793C612.344 176.793 612.348 176.793 612.352 176.793C612.355 176.793 612.359 176.793 612.363 176.793C612.366 176.793 612.37 176.793 612.374 176.793C612.377 176.793 612.381 176.793 612.385 176.793C612.388 176.793 612.392 176.793 612.396 176.793C612.399 176.793 612.403 176.793 612.407 176.793C612.411 176.793 612.414 176.793 612.418 176.793C612.422 176.793 612.425 176.793 612.429 176.793C612.433 176.793 612.436 176.793 612.44 176.793C612.444 176.793 612.447 176.793 612.451 176.793C612.455 176.793 612.458 176.793 612.462 176.793C612.466 176.793 612.469 176.793 612.473 176.793C612.477 176.793 612.48 176.793 612.484 176.793C612.488 176.793 612.491 176.793 612.495 176.793C612.499 176.793 612.502 176.793 612.506 176.793C612.51 176.793 612.514 176.793 612.517 176.793C612.521 176.793 612.525 176.793 612.528 176.793C612.532 176.793 612.536 176.793 612.539 176.793C612.543 176.793 612.547 176.793 612.55 176.793C612.554 176.793 612.558 176.793 612.561 176.793C612.565 176.793 612.569 176.793 612.572 176.793C612.576 176.793 612.58 176.793 612.584 176.793C612.587 176.793 612.591 176.793 612.595 176.793C612.598 176.793 612.602 176.793 612.606 176.793C612.609 176.793 612.613 176.793 612.617 176.793C612.62 176.793 612.624 176.793 612.628 176.793C612.632 176.793 612.635 176.793 612.639 176.793C612.643 176.793 612.646 176.793 612.65 176.793C612.654 176.793 612.657 176.793 612.661 176.793C612.665 176.793 612.668 176.793 612.672 176.793C612.676 176.793 612.68 176.793 612.683 176.793C612.687 176.793 612.691 176.793 612.694 176.793C612.698 176.793 612.702 176.793 612.705 176.793C612.709 176.793 612.713 176.793 612.716 176.793C612.72 176.793 612.724 176.793 612.728 176.793C612.731 176.793 612.735 176.793 612.739 176.793C612.742 176.793 612.746 176.793 612.75 176.793C612.753 176.793 612.757 176.793 612.761 176.793C612.765 176.793 612.768 176.793 612.772 176.793C612.776 176.793 612.779 176.793 612.783 176.793C612.787 176.793 612.79 176.793 612.794 176.793C612.798 176.793 612.802 176.793 612.805 176.793C612.809 176.793 612.813 176.793 612.816 176.793C612.82 176.793 612.824 176.793 612.827 176.793C612.831 176.793 612.835 176.793 612.839 176.793C612.842 176.793 612.846 176.793 612.85 176.793C612.853 176.793 612.857 176.793 612.861 176.793C612.865 176.793 612.868 176.793 612.872 176.793C612.876 176.793 612.879 176.793 612.883 176.793C612.887 176.793 612.89 176.793 612.894 176.793C612.898 176.793 612.902 176.793 612.905 176.793C612.909 176.793 612.913 176.793 612.916 176.793C612.92 176.793 612.924 176.793 612.928 176.793C612.931 176.793 612.935 176.793 612.939 176.793C612.942 176.793 612.946 176.793 612.95 176.793C612.954 176.793 612.957 176.793 612.961 176.793C612.965 176.793 612.968 176.793 612.972 176.793C612.976 176.793 612.98 176.793 612.983 176.793C612.987 176.793 612.991 176.793 612.994 176.793C612.998 176.793 613.002 176.793 613.006 176.793C613.009 176.793 613.013 176.793 613.017 176.793C613.02 176.793 613.024 176.793 613.028 176.793C613.032 176.793 613.035 176.793 613.039 176.793C613.043 176.793 613.046 176.793 613.05 176.793C613.054 176.793 613.058 176.793 613.061 176.793C613.065 176.793 613.069 176.793 613.072 176.793C613.076 176.793 613.08 176.793 613.084 176.793C613.087 176.793 613.091 176.793 613.095 176.793C613.098 176.793 613.102 176.793 613.106 176.793C613.11 176.793 613.113 176.793 613.117 176.793C613.121 176.793 613.125 176.793 613.128 176.793C613.132 176.793 613.136 176.793 613.139 176.793C613.143 176.793 613.147 176.793 613.151 176.793C613.154 176.793 613.158 176.793 613.162 176.793C613.166 176.793 613.169 176.793 613.173 176.793C613.177 176.793 613.18 176.793 613.184 176.793C613.188 176.793 613.192 176.793 613.195 176.793C613.199 176.793 613.203 176.793 613.207 176.793C613.21 176.793 613.214 176.793 613.218 176.793C613.221 176.793 613.225 176.793 613.229 176.793C613.233 176.793 613.236 176.793 613.24 176.793C613.244 176.793 613.248 176.793 613.251 176.793C613.255 176.793 613.259 176.793 613.262 176.793C613.266 176.793 613.27 176.793 613.274 176.793C613.277 176.793 613.281 176.793 613.285 176.793C613.289 176.793 613.292 176.793 613.296 176.793C613.3 176.793 613.304 176.793 613.307 176.793C613.311 176.793 613.315 176.793 613.319 176.793C613.322 176.793 613.326 176.793 613.33 176.793C613.333 176.793 613.337 176.793 613.341 176.793C613.345 176.793 613.348 176.793 613.352 176.793C613.356 176.793 613.36 176.793 613.363 176.793C613.367 176.793 613.371 176.793 613.375 176.793C613.378 176.793 613.382 176.793 613.386 176.793C613.39 176.793 613.393 176.793 613.397 176.793C613.401 176.793 613.405 176.793 613.408 176.793C613.412 176.793 613.416 176.793 613.419 176.793C613.423 176.793 613.427 176.793 613.431 176.793C613.434 176.793 613.438 176.793 613.442 176.793C613.446 176.793 613.449 176.793 613.453 176.793C613.457 176.793 613.461 176.793 613.464 176.793C613.468 176.793 613.472 176.793 613.476 176.793C613.479 176.793 613.483 176.793 613.487 176.793C613.491 176.793 613.494 176.793 613.498 176.793C613.502 176.793 613.506 176.793 613.509 176.793C613.513 176.793 613.517 176.793 613.521 176.793C613.524 176.793 613.528 176.793 613.532 176.793C613.536 176.793 613.539 176.793 613.543 176.793C613.547 176.793 613.551 176.793 613.554 176.793C613.558 176.793 613.562 176.793 613.566 176.793C613.569 176.793 613.573 176.793 613.577 176.793C613.581 176.793 613.584 176.793 613.588 176.793C613.592 176.793 613.596 176.793 613.599 176.793C613.603 176.793 613.607 176.793 613.611 176.793C613.614 176.793 613.618 176.793 613.622 176.793C613.626 176.793 613.629 176.793 613.633 176.793C613.637 176.793 613.641 176.793 613.645 176.793C613.648 176.793 613.652 176.793 613.656 176.793C613.66 176.793 613.663 176.793 613.667 176.793C613.671 176.793 613.675 176.793 613.678 176.793C613.682 176.793 613.686 176.793 613.69 176.793C613.693 176.793 613.697 176.793 613.701 176.793C613.705 176.793 613.708 176.793 613.712 176.793C613.716 176.793 613.72 176.793 613.723 176.793C613.727 176.793 613.731 176.793 613.735 176.793C613.739 176.793 613.742 176.793 613.746 176.793C613.75 176.793 613.754 176.793 613.757 176.793C613.761 176.793 613.765 176.793 613.769 176.793C613.772 176.793 613.776 176.793 613.78 176.793C613.784 176.793 613.788 176.793 613.791 176.793C613.795 176.793 613.799 176.793 613.803 176.793C613.806 176.793 613.81 176.793 613.814 176.793C613.818 176.793 613.821 176.793 613.825 176.793C613.829 176.793 613.833 176.793 613.837 176.793C613.84 176.793 613.844 176.793 613.848 176.793C613.852 176.793 613.855 176.793 613.859 176.793C613.863 176.793 613.867 176.793 613.87 176.793C613.874 176.793 613.878 176.793 613.882 176.793C613.886 176.793 613.889 176.793 613.893 176.793C613.897 176.793 613.901 176.793 613.904 176.793C613.908 176.793 613.912 176.793 613.916 176.793C613.92 176.793 613.923 176.793 613.927 176.793C613.931 176.793 613.935 176.793 613.938 176.793C613.942 176.793 613.946 176.793 613.95 176.793C613.954 176.793 613.957 176.793 613.961 176.793C613.965 176.793 613.969 176.793 613.972 176.793C613.976 176.793 613.98 176.793 613.984 176.793C613.988 176.793 613.991 176.793 613.995 176.793C613.999 176.793 614.003 176.793 614.006 176.793C614.01 176.793 614.014 176.793 614.018 176.793C614.022 176.793 614.025 176.793 614.029 176.793C614.033 176.793 614.037 176.793 614.04 176.793C614.044 176.793 614.048 176.793 614.052 176.793C614.056 176.793 614.059 176.793 614.063 176.793C614.067 176.793 614.071 176.793 614.075 176.793C614.078 176.793 614.082 176.793 614.086 176.793C614.09 176.793 614.093 176.793 614.097 176.793C614.101 176.793 614.105 176.793 614.109 176.793C614.112 176.793 614.116 176.793 614.12 176.793C614.124 176.793 614.128 176.793 614.131 176.793C614.135 176.793 614.139 176.793 614.143 176.793C614.147 176.793 614.15 176.793 614.154 176.793C614.158 176.793 614.162 176.793 614.165 176.793C614.169 176.793 614.173 176.793 614.177 176.793C614.181 176.793 614.184 176.793 614.188 176.793C614.192 176.793 614.196 176.793 614.2 176.793C614.203 176.793 614.207 176.793 614.211 176.793C614.215 176.793 614.219 176.793 614.222 176.793C614.226 176.793 614.23 176.793 614.234 176.793C614.238 176.793 614.241 176.793 614.245 176.793C614.249 176.793 614.253 176.793 614.257 176.793C614.26 176.793 614.264 176.793 614.268 176.793C614.272 176.793 614.276 176.793 614.279 176.793C614.283 176.793 614.287 176.793 614.291 176.793C614.295 176.793 614.298 176.793 614.302 176.793C614.306 176.793 614.31 176.793 614.314 176.793C614.317 176.793 614.321 176.793 614.325 176.793C614.329 176.793 614.333 176.793 614.336 176.793C614.34 176.793 614.344 176.793 614.348 176.793C614.352 176.793 614.355 176.793 614.359 176.793C614.363 176.793 614.367 176.793 614.371 176.793C614.374 176.793 614.378 176.793 614.382 176.793C614.386 176.793 614.39 176.793 614.393 176.793C614.397 176.793 614.401 176.793 614.405 176.793C614.409 176.793 614.413 176.793 614.416 176.793C614.42 176.793 614.424 176.793 614.428 176.793C614.432 176.793 614.435 176.793 614.439 176.793C614.443 176.793 614.447 176.793 614.451 176.793C614.454 176.793 614.458 176.793 614.462 176.793C614.466 176.793 614.47 176.793 614.473 176.793C614.477 176.793 614.481 176.793 614.485 176.793C614.489 176.793 614.493 176.793 614.496 176.793C614.5 176.793 614.504 176.793 614.508 176.793V156.793ZM608.757 156.795L545.183 157.967L545.551 177.963L609.126 176.791L608.757 156.795ZM535.367 167.965V193.746H555.367V167.965H535.367ZM545.367 203.746H618.609V183.746H545.367V203.746ZM616.965 203.61C616.74 203.572 615.498 203.312 614.248 202.062C612.912 200.726 612.529 199.226 612.459 198.46L632.377 196.649C632.112 193.735 630.996 190.526 628.39 187.92C625.871 185.401 622.823 184.31 620.253 183.882L616.965 203.61ZM612.418 197.555V241.793H632.418V197.555H612.418ZM612.554 240.149C612.592 239.923 612.852 238.681 614.102 237.432C615.438 236.095 616.938 235.712 617.704 235.643L619.515 255.56C622.429 255.296 625.638 254.18 628.244 251.574C630.763 249.055 631.854 246.006 632.282 243.437L612.554 240.149ZM618.609 235.602H561.773V255.602H618.609V235.602ZM551.773 245.602V271.09H571.773V245.602H551.773ZM561.773 281.09H620.074V261.09H561.773V281.09ZM618.43 280.954C618.025 280.886 616.695 280.547 615.456 279.213C614.208 277.869 613.956 276.489 613.917 276.022L633.848 274.361C633.614 271.55 632.63 268.315 630.112 265.604C627.604 262.902 624.467 261.684 621.718 261.226L618.43 280.954ZM613.883 275.191V324.117H633.883V275.191H613.883ZM614.019 322.473C614.056 322.248 614.317 321.006 615.567 319.756C616.903 318.42 618.403 318.037 619.169 317.967L620.98 337.885C623.894 337.62 627.103 336.504 629.709 333.898C632.228 331.379 633.319 328.331 633.747 325.761L614.019 322.473ZM620.074 317.926H544.488V337.926H620.074V317.926ZM534.488 327.926V354H554.488V327.926H534.488ZM544.308 363.998L609.347 365.17L609.707 345.173L544.668 344.002L544.308 363.998ZM609.362 365.171C622.331 365.385 633.893 363.14 643.245 357.516C652.833 351.751 659.203 342.966 662.474 331.942L643.3 326.253C641.297 333.002 637.804 337.451 632.938 340.376C627.837 343.444 620.356 345.349 609.693 345.173L609.362 365.171ZM662.563 331.622C663.969 326.232 664.645 320.593 664.645 314.742H644.645C644.645 319.048 644.148 322.979 643.211 326.573L662.563 331.622Z" fill="white"/>
<path d="M460.037 593.724C457.099 596.561 453.858 596.119 450.769 594.781C447.485 593.416 444.483 593.33 441.014 594.781C436.695 596.636 434.402 596.097 431.801 593.724C417.113 578.676 419.281 555.753 435.974 554.891C440.022 555.106 442.857 557.118 445.241 557.285C448.786 556.568 452.178 554.513 455.972 554.783C460.53 555.149 463.939 556.94 466.215 560.16C456.839 565.769 459.061 578.067 467.673 581.518C465.95 586.022 463.738 590.472 460.031 593.762L460.037 593.724ZM444.916 554.729C444.477 548.041 449.924 542.539 456.189 542C457.051 549.713 449.143 555.484 444.916 554.729Z" fill="black" fill-opacity="0.3"/>
<defs>
<linearGradient id="paint0_linear_1:2" x1="444.5" y1="620" x2="444.5" y2="715" gradientUnits="userSpaceOnUse">
<stop stop-color="#636C6D"/>
<stop offset="0.15625" stop-color="#657375"/>
<stop offset="1" stop-color="#7C8485"/>
</linearGradient>
<linearGradient id="paint1_linear_1:2" x1="25" y1="37.3667" x2="807.457" y2="577.29" gradientUnits="userSpaceOnUse">
<stop stop-color="#2FDC74"/>
<stop offset="1" stop-color="#006E7D"/>
</linearGradient>
<linearGradient id="paint2_linear_1:2" x1="444.5" y1="518" x2="444.5" y2="620" gradientUnits="userSpaceOnUse">
<stop stop-color="#8C9B9D"/>
<stop offset="1" stop-color="#859395"/>
</linearGradient>
<linearGradient id="paint3_linear_1:2" x1="755.25" y1="579" x2="755.25" y2="659" gradientUnits="userSpaceOnUse">
<stop stop-color="#FFE600"/>
<stop offset="0.557292" stop-color="#FFE600"/>
<stop offset="1" stop-color="#CEBA00"/>
</linearGradient>
<linearGradient id="paint4_linear_1:2" x1="593.25" y1="563" x2="593.25" y2="643" gradientUnits="userSpaceOnUse">
<stop stop-color="#FFE600"/>
<stop offset="0.557292" stop-color="#FFE600"/>
<stop offset="1" stop-color="#CEBA00"/>
</linearGradient>
</defs>
</svg>
