<svg width="889" height="715" viewBox="0 0 889 715" fill="none" xmlns="http://www.w3.org/2000/svg">
<path d="M313 620H576V695C576 706.046 567.046 715 556 715H333C321.954 715 313 706.046 313 695V620Z" fill="url(#paint0_linear_1:2)"/>
<rect x="25" y="26" width="842" height="465" fill="url(#paint1_linear_1:2)"/>
<path d="M15 30C15 21.7157 21.7157 15 30 15H859C867.284 15 874 21.7157 874 30V503H15V30Z" stroke="black" stroke-width="30"/>
<path d="M0 518H889V590C889 606.569 875.569 620 859 620H30C13.4314 620 0 606.569 0 590V518Z" fill="url(#paint2_linear_1:2)"/>
<path d="M699 589C699 583.477 703.477 579 709 579H808C813.523 579 818 583.477 818 589V620.13C818 627.355 818.783 634.56 820.335 641.616L820.827 643.851C822.2 650.091 817.45 656 811.061 656H712.539C707.844 656 703.781 652.734 702.773 648.149L701.335 641.616C699.783 634.56 699 627.355 699 620.13V589Z" fill="url(#paint3_linear_1:2)"/>
<rect x="707" y="586" width="54" height="10" rx="5" fill="black" fill-opacity="0.1"/>
<rect x="707" y="603" width="102" height="10" rx="5" fill="black" fill-opacity="0.1"/>
<rect x="707" y="620" width="83" height="10" rx="5" fill="black" fill-opacity="0.1"/>
<rect x="710" y="635" width="89" height="8" rx="4" fill="black" fill-opacity="0.1"/>
<rect x="713" y="646" width="48" height="6" rx="3" fill="black" fill-opacity="0.1"/>
<path d="M537 573C537 567.477 541.477 563 547 563H646C651.523 563 656 567.477 656 573V613.681C656 618.524 656.839 623.33 658.479 627.886C659.463 630.619 657.438 633.5 654.533 633.5H546.503C543.501 633.5 540.822 631.617 539.805 628.793C537.949 623.636 537 618.198 537 612.718V573Z" fill="url(#paint4_linear_1:2)"/>
<rect x="543" y="569" width="93" height="10" rx="5" fill="black" fill-opacity="0.1"/>
<rect x="543" y="586" width="72" height="10" rx="5" fill="black" fill-opacity="0.1"/>
<rect x="543" y="603" width="78" height="10" rx="5" fill="black" fill-opacity="0.1"/>
<rect x="546" y="618" width="39" height="8" rx="4" fill="black" fill-opacity="0.1"/>
<path d="M326.08 354V311.812H353.619V286.617H326.08V167.965L297.369 167.086C290.143 167.086 284.283 168.16 279.791 170.309C275.299 172.457 272.076 174.801 270.123 177.34C268.365 179.879 265.338 185.055 261.041 192.867L260.748 193.16L207.721 290.719V311.812H295.904V354H326.08ZM285.943 196.676C287.506 194.723 288.971 193.746 290.338 193.746H295.904V286.617H237.311L285.943 196.676ZM471.1 192.574C473.053 192.965 474.127 194.039 474.322 195.797V326.168C473.932 328.121 472.857 329.195 471.1 329.391H416.9C414.947 329 413.873 327.926 413.678 326.168V195.797C414.068 193.844 415.143 192.77 416.9 192.574H471.1ZM383.209 318.551C383.209 340.23 393.268 352.535 413.385 355.465C417.096 356.051 421.1 356.344 425.396 356.344H462.604C487.213 356.344 501.08 346.969 504.205 328.219C504.596 325.094 504.791 321.871 504.791 318.551V203.414C504.791 182.516 495.611 170.309 477.252 166.793C472.76 166.012 467.877 165.621 462.604 165.621H425.396C401.764 165.621 388.092 174.215 384.381 191.402C383.6 195.113 383.209 199.117 383.209 203.414V318.551ZM648.346 354V311.812H675.885V286.617H648.346V167.965L619.635 167.086C612.408 167.086 606.549 168.16 602.057 170.309C597.564 172.457 594.342 174.801 592.389 177.34C590.631 179.879 587.604 185.055 583.307 192.867L583.014 193.16L529.986 290.719V311.812H618.17V354H648.346ZM608.209 196.676C609.771 194.723 611.236 193.746 612.604 193.746H618.17V286.617H559.576L608.209 196.676Z" fill="white"/>
<path d="M326.08 354V364H336.08V354H326.08ZM326.08 311.812V301.812H316.08V311.812H326.08ZM353.619 311.812V321.812H363.619V311.812H353.619ZM353.619 286.617H363.619V276.617H353.619V286.617ZM326.08 286.617H316.08V296.617H326.08V286.617ZM326.08 167.965H336.08V158.266L326.386 157.97L326.08 167.965ZM297.369 167.086L297.675 157.091L297.522 157.086H297.369V167.086ZM270.123 177.34L262.197 171.243L262.044 171.442L261.901 171.648L270.123 177.34ZM261.041 192.867L268.112 199.938L269.118 198.933L269.803 197.686L261.041 192.867ZM260.748 193.16L253.677 186.089L252.653 187.113L251.962 188.385L260.748 193.16ZM207.721 290.719L198.935 285.943L197.721 288.177V290.719H207.721ZM207.721 311.812H197.721V321.812H207.721V311.812ZM295.904 311.812H305.904V301.812H295.904V311.812ZM295.904 354H285.904V364H295.904V354ZM285.943 196.676L278.135 190.429L277.574 191.13L277.147 191.919L285.943 196.676ZM295.904 193.746H305.904V183.746H295.904V193.746ZM295.904 286.617V296.617H305.904V286.617H295.904ZM237.311 286.617L228.514 281.861L220.535 296.617H237.311V286.617ZM336.08 354V311.812H316.08V354H336.08ZM326.08 321.812H353.619V301.812H326.08V321.812ZM363.619 311.812V286.617H343.619V311.812H363.619ZM353.619 276.617H326.08V296.617H353.619V276.617ZM336.08 286.617V167.965H316.08V286.617H336.08ZM326.386 157.97L297.675 157.091L297.063 177.081L325.774 177.96L326.386 157.97ZM297.369 157.086C289.272 157.086 281.783 158.271 275.476 161.287L284.106 179.33C286.783 178.049 291.013 177.086 297.369 177.086V157.086ZM275.476 161.287C270.277 163.774 265.493 166.957 262.197 171.243L278.049 183.437C278.659 182.644 280.32 181.14 284.106 179.33L275.476 161.287ZM261.901 171.648C259.805 174.676 256.541 180.298 252.279 188.048L269.803 197.686C274.134 189.811 276.926 185.082 278.345 183.032L261.901 171.648ZM253.97 185.796L253.677 186.089L267.819 200.231L268.112 199.938L253.97 185.796ZM251.962 188.385L198.935 285.943L216.507 295.494L269.534 197.936L251.962 188.385ZM197.721 290.719V311.812H217.721V290.719H197.721ZM207.721 321.812H295.904V301.812H207.721V321.812ZM285.904 311.812V354H305.904V311.812H285.904ZM295.904 364H326.08V344H295.904V364ZM293.752 202.923C294.138 202.441 294.161 202.532 293.761 202.799C293.319 203.093 292.125 203.746 290.338 203.746V183.746C284.17 183.746 280.117 187.95 278.135 190.429L293.752 202.923ZM290.338 203.746H295.904V183.746H290.338V203.746ZM285.904 193.746V286.617H305.904V193.746H285.904ZM295.904 276.617H237.311V296.617H295.904V276.617ZM246.107 291.374L294.74 201.432L277.147 191.919L228.514 281.861L246.107 291.374ZM471.1 192.574L473.061 182.768L472.09 182.574H471.1V192.574ZM474.322 195.797H484.322V195.243L484.261 194.693L474.322 195.797ZM474.322 326.168L484.128 328.129L484.322 327.158V326.168H474.322ZM471.1 329.391V339.391H471.653L472.204 339.329L471.1 329.391ZM416.9 329.391L414.939 339.196L415.91 339.391H416.9V329.391ZM413.678 326.168H403.678V326.722L403.739 327.272L413.678 326.168ZM413.678 195.797L403.872 193.836L403.678 194.807V195.797H413.678ZM416.9 192.574V182.574H416.347L415.796 182.635L416.9 192.574ZM413.385 355.465L414.944 345.587L414.885 345.578L414.826 345.569L413.385 355.465ZM504.205 328.219L514.069 329.863L514.103 329.662L514.128 329.459L504.205 328.219ZM477.252 166.793L479.133 156.971L479.049 156.955L478.965 156.941L477.252 166.793ZM384.381 191.402L374.606 189.292L374.601 189.317L374.595 189.342L384.381 191.402ZM469.138 202.38C468.773 202.307 467.532 201.977 466.299 200.744C464.975 199.42 464.493 197.891 464.383 196.901L484.261 194.693C483.956 191.945 482.84 189 480.441 186.602C478.134 184.294 475.379 183.232 473.061 182.768L469.138 202.38ZM464.322 195.797V326.168H484.322V195.797H464.322ZM464.516 324.207C464.59 323.841 464.919 322.6 466.153 321.367C467.477 320.043 469.005 319.562 469.995 319.452L472.204 339.329C474.952 339.024 477.896 337.908 480.295 335.51C482.602 333.202 483.664 330.448 484.128 328.129L464.516 324.207ZM471.1 319.391H416.9V339.391H471.1V319.391ZM418.862 319.585C419.227 319.658 420.468 319.988 421.701 321.221C423.025 322.545 423.507 324.074 423.617 325.064L403.739 327.272C404.044 330.02 405.16 332.965 407.559 335.363C409.866 337.67 412.621 338.733 414.939 339.196L418.862 319.585ZM423.678 326.168V195.797H403.678V326.168H423.678ZM423.484 197.758C423.41 198.124 423.081 199.364 421.847 200.597C420.523 201.922 418.995 202.403 418.005 202.513L415.796 182.635C413.048 182.941 410.104 184.057 407.705 186.455C405.398 188.763 404.336 191.517 403.872 193.836L423.484 197.758ZM416.9 202.574H471.1V182.574H416.9V202.574ZM373.209 318.551C373.209 330.861 376.068 341.875 383.011 350.368C390.025 358.949 400.127 363.64 411.944 365.36L414.826 345.569C406.526 344.36 401.54 341.434 398.495 337.71C395.38 333.899 393.209 327.92 393.209 318.551H373.209ZM411.825 365.342C416.119 366.02 420.65 366.344 425.396 366.344V346.344C421.549 346.344 418.072 346.081 414.944 345.587L411.825 365.342ZM425.396 366.344H462.604V346.344H425.396V366.344ZM462.604 366.344C476.016 366.344 487.866 363.814 497.062 357.597C506.584 351.159 512.123 341.54 514.069 329.863L494.341 326.575C493.162 333.648 490.205 338.091 485.86 341.028C481.189 344.186 473.801 346.344 462.604 346.344V366.344ZM514.128 329.459C514.573 325.901 514.791 322.263 514.791 318.551H494.791C494.791 321.479 494.619 324.286 494.282 326.978L514.128 329.459ZM514.791 318.551V203.414H494.791V318.551H514.791ZM514.791 203.414C514.791 191.583 512.196 180.949 505.899 172.575C499.499 164.064 490.18 159.087 479.133 156.971L475.371 176.615C482.684 178.015 487.134 180.898 489.914 184.595C492.796 188.428 494.791 194.347 494.791 203.414H514.791ZM478.965 156.941C473.828 156.047 468.364 155.621 462.604 155.621V175.621C467.39 175.621 471.692 175.976 475.539 176.645L478.965 156.941ZM462.604 155.621H425.396V175.621H462.604V155.621ZM425.396 155.621C412.519 155.621 401.103 157.939 392.096 163.6C382.766 169.465 376.974 178.325 374.606 189.292L394.156 193.513C395.499 187.292 398.398 183.262 402.74 180.533C407.405 177.6 414.641 175.621 425.396 175.621V155.621ZM374.595 189.342C373.654 193.813 373.209 198.515 373.209 203.414H393.209C393.209 199.72 393.545 196.413 394.166 193.462L374.595 189.342ZM373.209 203.414V318.551H393.209V203.414H373.209ZM648.346 354V364H658.346V354H648.346ZM648.346 311.812V301.812H638.346V311.812H648.346ZM675.885 311.812V321.812H685.885V311.812H675.885ZM675.885 286.617H685.885V276.617H675.885V286.617ZM648.346 286.617H638.346V296.617H648.346V286.617ZM648.346 167.965H658.346V158.266L648.652 157.97L648.346 167.965ZM619.635 167.086L619.941 157.091L619.788 157.086H619.635V167.086ZM592.389 177.34L584.462 171.243L584.31 171.442L584.167 171.648L592.389 177.34ZM583.307 192.867L590.378 199.938L591.383 198.933L592.069 197.686L583.307 192.867ZM583.014 193.16L575.943 186.089L574.919 187.113L574.228 188.385L583.014 193.16ZM529.986 290.719L521.2 285.943L519.986 288.177V290.719H529.986ZM529.986 311.812H519.986V321.812H529.986V311.812ZM618.17 311.812H628.17V301.812H618.17V311.812ZM618.17 354H608.17V364H618.17V354ZM608.209 196.676L600.4 190.429L599.84 191.13L599.413 191.919L608.209 196.676ZM618.17 193.746H628.17V183.746H618.17V193.746ZM618.17 286.617V296.617H628.17V286.617H618.17ZM559.576 286.617L550.78 281.861L542.801 296.617H559.576V286.617ZM658.346 354V311.812H638.346V354H658.346ZM648.346 321.812H675.885V301.812H648.346V321.812ZM685.885 311.812V286.617H665.885V311.812H685.885ZM675.885 276.617H648.346V296.617H675.885V276.617ZM658.346 286.617V167.965H638.346V286.617H658.346ZM648.652 157.97L619.941 157.091L619.329 177.081L648.04 177.96L648.652 157.97ZM619.635 157.086C611.538 157.086 604.049 158.271 597.742 161.287L606.371 179.33C609.049 178.049 613.279 177.086 619.635 177.086V157.086ZM597.742 161.287C592.543 163.774 587.759 166.957 584.462 171.243L600.315 183.437C600.925 182.644 602.586 181.14 606.371 179.33L597.742 161.287ZM584.167 171.648C582.07 174.676 578.807 180.298 574.544 188.048L592.069 197.686C596.4 189.811 599.191 185.082 600.611 183.032L584.167 171.648ZM576.236 185.796L575.943 186.089L590.085 200.231L590.378 199.938L576.236 185.796ZM574.228 188.385L521.2 285.943L538.772 295.494L591.8 197.936L574.228 188.385ZM519.986 290.719V311.812H539.986V290.719H519.986ZM529.986 321.812H618.17V301.812H529.986V321.812ZM608.17 311.812V354H628.17V311.812H608.17ZM618.17 364H648.346V344H618.17V364ZM616.018 202.923C616.403 202.441 616.427 202.532 616.026 202.799C615.585 203.093 614.391 203.746 612.604 203.746V183.746C606.436 183.746 602.383 187.95 600.4 190.429L616.018 202.923ZM612.604 203.746H618.17V183.746H612.604V203.746ZM608.17 193.746V286.617H628.17V193.746H608.17ZM618.17 276.617H559.576V296.617H618.17V276.617ZM568.373 291.374L617.005 201.432L599.413 191.919L550.78 281.861L568.373 291.374Z" fill="white"/>
<path d="M460.037 593.724C457.099 596.561 453.858 596.119 450.769 594.781C447.485 593.416 444.483 593.33 441.014 594.781C436.695 596.636 434.402 596.097 431.801 593.724C417.113 578.676 419.281 555.753 435.974 554.891C440.022 555.106 442.857 557.118 445.241 557.285C448.786 556.568 452.178 554.513 455.972 554.783C460.53 555.149 463.939 556.94 466.215 560.16C456.839 565.769 459.061 578.067 467.673 581.518C465.95 586.022 463.738 590.472 460.031 593.762L460.037 593.724ZM444.916 554.729C444.477 548.041 449.924 542.539 456.189 542C457.051 549.713 449.143 555.484 444.916 554.729Z" fill="black" fill-opacity="0.3"/>
<defs>
<linearGradient id="paint0_linear_1:2" x1="444.5" y1="620" x2="444.5" y2="715" gradientUnits="userSpaceOnUse">
<stop stop-color="#636C6D"/>
<stop offset="0.15625" stop-color="#657375"/>
<stop offset="1" stop-color="#7C8485"/>
</linearGradient>
<linearGradient id="paint1_linear_1:2" x1="25" y1="37.3667" x2="807.457" y2="577.29" gradientUnits="userSpaceOnUse">
<stop stop-color="#2FDC74"/>
<stop offset="1" stop-color="#006E7D"/>
</linearGradient>
<linearGradient id="paint2_linear_1:2" x1="444.5" y1="518" x2="444.5" y2="620" gradientUnits="userSpaceOnUse">
<stop stop-color="#8C9B9D"/>
<stop offset="1" stop-color="#859395"/>
</linearGradient>
<linearGradient id="paint3_linear_1:2" x1="755.25" y1="579" x2="755.25" y2="659" gradientUnits="userSpaceOnUse">
<stop stop-color="#FFE600"/>
<stop offset="0.557292" stop-color="#FFE600"/>
<stop offset="1" stop-color="#CEBA00"/>
</linearGradient>
<linearGradient id="paint4_linear_1:2" x1="593.25" y1="563" x2="593.25" y2="643" gradientUnits="userSpaceOnUse">
<stop stop-color="#FFE600"/>
<stop offset="0.557292" stop-color="#FFE600"/>
<stop offset="1" stop-color="#CEBA00"/>
</linearGradient>
</defs>
</svg>
