<svg width="788" height="337" viewBox="0 0 788 337" fill="none" xmlns="http://www.w3.org/2000/svg">
<g clip-path="url(#clip0_1_2)">
<path d="M203.9 241.1C206.5 241.1 208.5 242.3 209.9 244.7C211.5 247.1 212.3 250.4 212.3 254.6C212.3 262.6 210.4 268.8 206.6 273.2C197.4 283.8 187.9 292.5 178.1 299.3C168.5 306.1 157.5 309.5 145.1 309.5C134.9 309.5 127.2 306.6 122 300.8C116.8 294.8 114.2 286.2 114.2 275C114.2 269.4 115.6 259.4 118.4 245C121 232.4 122.3 223.7 122.3 218.9C122.3 215.7 121.2 214.1 119 214.1C116.4 214.1 112.7 217.5 107.9 224.3C103.1 230.9 98.3 239.7 93.5 250.7C88.7 261.7 84.8 273.3 81.8 285.5C78 301.5 68.6 309.5 53.6 309.5C47.6 309.5 43.6 307.4 41.6 303.2C39.8 298.8 38.9 291 38.9 279.8C38.9 273.4 39 268.3 39.2 264.5L39.5 240.5C39.5 209.7 42.6 177.6 48.8 144.2C55.2 110.8 64.5 82.8 76.7 60.2C89.1 37.4 103.9 26 121.1 26C130.3 26 137.7 30 143.3 38C149.1 45.8 152 56 152 68.6C152 88.8 146.1 109.8 134.3 131.6C122.5 153.2 103.3 178.5 76.7 207.5C76.1 217.9 75.8 228.6 75.8 239.6C82.4 222.6 89.7 208.8 97.7 198.2C105.9 187.4 113.9 179.7 121.7 175.1C129.7 170.5 137 168.2 143.6 168.2C156.6 168.2 163.1 174.7 163.1 187.7C163.1 195.5 160.9 209.6 156.5 230C152.7 247.4 150.8 258.9 150.8 264.5C150.8 272.5 153.7 276.5 159.5 276.5C163.5 276.5 168.2 274.1 173.6 269.3C179.2 264.3 186.6 256.3 195.8 245.3C198.2 242.5 200.9 241.1 203.9 241.1ZM114.8 55.7C111.2 55.7 107.2 60.9 102.8 71.3C98.4 81.5 94.1 95.4 89.9 113C85.9 130.4 82.6 149.4 80 170C92.4 155.4 102.6 139.5 110.6 122.3C118.8 105.1 122.9 89.5 122.9 75.5C122.9 69.1 122.2 64.2 120.8 60.8C119.4 57.4 117.4 55.7 114.8 55.7ZM224.886 309.5C212.486 309.5 202.586 305 195.186 296C187.786 287 184.086 275.2 184.086 260.6C184.086 244.6 187.786 229.5 195.186 215.3C202.586 200.9 212.386 189.4 224.586 180.8C236.986 172 250.086 167.6 263.886 167.6C268.286 167.6 271.186 168.5 272.586 170.3C274.186 171.9 275.486 174.9 276.486 179.3C280.686 178.5 285.086 178.1 289.686 178.1C299.486 178.1 304.386 181.6 304.386 188.6C304.386 192.8 302.886 202.8 299.886 218.6C295.286 241.6 292.986 257.6 292.986 266.6C292.986 269.6 293.686 272 295.086 273.8C296.686 275.6 298.686 276.5 301.086 276.5C304.886 276.5 309.486 274.1 314.886 269.3C320.286 264.3 327.586 256.3 336.786 245.3C339.186 242.5 341.886 241.1 344.886 241.1C347.486 241.1 349.486 242.3 350.886 244.7C352.486 247.1 353.286 250.4 353.286 254.6C353.286 262.6 351.386 268.8 347.586 273.2C339.386 283.4 330.686 292 321.486 299C312.286 306 303.386 309.5 294.786 309.5C288.186 309.5 282.086 307.3 276.486 302.9C271.086 298.3 266.986 292.1 264.186 284.3C253.786 301.1 240.686 309.5 224.886 309.5ZM235.686 279.2C240.086 279.2 244.286 276.6 248.286 271.4C252.286 266.2 255.186 259.3 256.986 250.7L268.086 195.5C259.686 195.7 251.886 198.9 244.686 205.1C237.686 211.1 232.086 219.1 227.886 229.1C223.686 239.1 221.586 249.7 221.586 260.9C221.586 267.1 222.786 271.7 225.186 274.7C227.786 277.7 231.286 279.2 235.686 279.2ZM442.604 241.1C445.204 241.1 447.204 242.3 448.604 244.7C450.204 247.1 451.004 250.4 451.004 254.6C451.004 262.6 449.104 268.8 445.304 273.2C436.704 283.8 427.304 292.5 417.104 299.3C407.104 306.1 395.704 309.5 382.904 309.5C365.304 309.5 352.204 301.5 343.604 285.5C335.204 269.5 331.004 248.8 331.004 223.4C331.004 199 334.104 171.2 340.304 140C346.704 108.8 356.004 82 368.204 59.6C380.604 37.2 395.304 26 412.304 26C421.904 26 429.404 30.5 434.804 39.5C440.404 48.3 443.204 61 443.204 77.6C443.204 101.4 436.604 129 423.404 160.4C410.204 191.8 392.304 222.9 369.704 253.7C371.104 261.9 373.404 267.8 376.604 271.4C379.804 274.8 384.004 276.5 389.204 276.5C397.404 276.5 404.604 274.2 410.804 269.6C417.004 264.8 424.904 256.7 434.504 245.3C436.904 242.5 439.604 241.1 442.604 241.1ZM405.704 55.7C401.104 55.7 395.904 64 390.104 80.6C384.304 97.2 379.204 117.8 374.804 142.4C370.404 167 368.004 190.6 367.604 213.2C381.804 189.8 393.104 166.4 401.504 143C409.904 119.4 414.104 97.9 414.104 78.5C414.104 63.3 411.304 55.7 405.704 55.7ZM540.455 241.1C543.055 241.1 545.055 242.3 546.455 244.7C548.055 247.1 548.855 250.4 548.855 254.6C548.855 262.6 546.955 268.8 543.155 273.2C534.555 283.8 525.155 292.5 514.955 299.3C504.955 306.1 493.555 309.5 480.755 309.5C463.155 309.5 450.055 301.5 441.455 285.5C433.055 269.5 428.855 248.8 428.855 223.4C428.855 199 431.955 171.2 438.155 140C444.555 108.8 453.855 82 466.055 59.6C478.455 37.2 493.155 26 510.155 26C519.755 26 527.255 30.5 532.655 39.5C538.255 48.3 541.055 61 541.055 77.6C541.055 101.4 534.455 129 521.255 160.4C508.055 191.8 490.155 222.9 467.555 253.7C468.955 261.9 471.255 267.8 474.455 271.4C477.655 274.8 481.855 276.5 487.055 276.5C495.255 276.5 502.455 274.2 508.655 269.6C514.855 264.8 522.755 256.7 532.355 245.3C534.755 242.5 537.455 241.1 540.455 241.1ZM503.555 55.7C498.955 55.7 493.755 64 487.955 80.6C482.155 97.2 477.055 117.8 472.655 142.4C468.255 167 465.855 190.6 465.455 213.2C479.655 189.8 490.955 166.4 499.355 143C507.755 119.4 511.955 97.9 511.955 78.5C511.955 63.3 509.155 55.7 503.555 55.7ZM575.307 309.5C563.507 309.5 553.407 306.6 545.007 300.8C536.807 294.8 530.607 287 526.407 277.4C522.207 267.8 520.107 257.5 520.107 246.5C520.107 231.3 522.907 217.8 528.507 206C534.307 194 542.107 184.7 551.907 178.1C561.707 171.3 572.707 167.9 584.907 167.9C596.707 167.9 606.807 170.9 615.207 176.9C623.607 182.7 629.907 190.4 634.107 200C638.307 209.6 640.407 219.9 640.407 230.9C640.407 246.1 637.507 259.7 631.707 271.7C625.907 283.5 618.007 292.8 608.007 299.6C598.207 306.2 587.307 309.5 575.307 309.5ZM578.607 277.1C585.407 277.1 591.107 273.4 595.707 266C600.507 258.6 602.907 247.8 602.907 233.6C602.907 222.6 600.907 214.3 596.907 208.7C592.907 203.1 588.107 200.3 582.507 200.3C575.307 200.3 569.307 204 564.507 211.4C559.907 218.6 557.607 229.4 557.607 243.8C557.607 255.2 559.607 263.6 563.607 269C567.607 274.4 572.607 277.1 578.607 277.1ZM694.145 237.8C690.145 237.8 686.845 236.9 684.245 235.1C681.645 233.3 680.345 230.5 680.345 226.7L680.645 224.3C684.045 201.9 688.645 176.4 694.445 147.8C700.245 119.2 705.645 94.5 710.645 73.7C713.845 60.9 722.545 54.5 736.745 54.5C749.545 54.5 755.945 58.6 755.945 66.8C755.945 68.6 755.645 70.6 755.045 72.8C749.845 94 742.945 119.7 734.345 149.9C725.745 179.9 717.545 206 709.745 228.2C707.545 234.6 702.345 237.8 694.145 237.8ZM682.745 309.5C673.945 309.5 667.245 307.1 662.645 302.3C658.245 297.5 656.045 291.2 656.045 283.4C656.045 274.4 658.545 267.2 663.545 261.8C668.745 256.4 675.945 253.7 685.145 253.7C693.945 253.7 700.545 255.9 704.945 260.3C709.545 264.5 711.845 270.8 711.845 279.2C711.845 288.4 709.245 295.8 704.045 301.4C698.845 306.8 691.745 309.5 682.745 309.5Z" fill="white"/>
</g>
<defs>
<clipPath id="clip0_1_2">
<rect width="788" height="337" fill="white"/>
</clipPath>
</defs>
</svg>
