<svg width="1679" height="645" viewBox="0 0 1679 645" fill="none" xmlns="http://www.w3.org/2000/svg">
<path d="M65.9625 208V206L69.9625 204.4C72.6292 203.467 74.3625 202.2 75.1625 200.6C76.0959 199 76.5625 196.867 76.5625 194.2V89.8C76.5625 87.1333 76.1625 85 75.3625 83.4C74.5625 81.8 72.7625 80.5333 69.9625 79.6L65.9625 78V76H117.363V78L113.363 79.6C110.696 80.5333 108.896 81.8 107.963 83.4C107.163 85 106.763 87.1333 106.763 89.8V194.2C106.763 196.867 107.163 199 107.963 200.6C108.896 202.067 110.696 203.333 113.363 204.4L117.363 206V208H65.9625Z" fill="black"/>
<path d="M170.045 211C160.979 211 152.712 209.067 145.245 205.2C137.912 201.2 132.045 195.467 127.645 188C123.379 180.4 121.245 171.133 121.245 160.2C121.245 149.4 123.579 140.2 128.245 132.6C133.045 124.867 139.379 119 147.245 115C155.245 110.867 163.979 108.8 173.445 108.8C181.179 108.8 187.712 110.067 193.045 112.6C198.379 115.133 202.445 118.467 205.245 122.6C208.045 126.6 209.445 130.8 209.445 135.2C209.445 138.933 208.312 141.867 206.045 144C203.779 146 200.845 147 197.245 147C193.379 147 190.245 145.6 187.845 142.8C185.445 140 184.045 136.333 183.645 131.8C183.512 128.867 183.579 126.4 183.845 124.4C184.112 122.267 184.112 120.133 183.845 118C183.312 115.733 182.445 114.267 181.245 113.6C180.179 112.8 178.645 112.4 176.645 112.4C168.512 112.4 162.179 115.933 157.645 123C153.245 130.067 151.045 141.333 151.045 156.8C151.045 170.267 153.512 180.6 158.445 187.8C163.512 194.867 171.245 198.4 181.645 198.4C187.912 198.4 192.979 197.267 196.845 195C200.712 192.733 204.445 189.333 208.045 184.8L210.045 186.4C206.712 194.267 201.579 200.333 194.645 204.6C187.712 208.867 179.512 211 170.045 211Z" fill="black"/>
<path d="M215.577 208V206L217.977 205.2C222.777 203.6 225.177 200.267 225.177 195.2V88.4C225.177 85.6 224.71 83.5333 223.777 82.2C222.843 80.8667 221.043 79.8666 218.377 79.2L215.377 78.4V76.4L250.577 67.8L253.777 69.6L252.977 97.8V122.8C257.643 118.933 262.643 115.667 267.977 113C273.443 110.2 279.443 108.8 285.977 108.8C294.643 108.8 301.51 111.267 306.577 116.2C311.777 121.133 314.377 128.733 314.377 139V195.4C314.377 198.067 314.91 200.2 315.977 201.8C317.043 203.4 318.91 204.6 321.577 205.4L323.177 206V208H276.377V206L278.777 205.4C283.577 203.8 285.977 200.4 285.977 195.2V132.4C285.977 127.067 285.043 123.4 283.177 121.4C281.443 119.4 278.31 118.4 273.777 118.4C270.843 118.4 267.643 119 264.177 120.2C260.71 121.267 257.177 123.2 253.577 126V195.6C253.577 200.8 255.977 204.133 260.777 205.6L262.377 206V208H215.577Z" fill="black"/>
<path d="M408.747 210.6L374.947 208V206L376.947 205.6C382.147 204.4 384.747 201.067 384.747 195.6V88.6C384.747 85.8 384.28 83.6667 383.347 82.2C382.547 80.7333 380.814 79.7333 378.147 79.2L375.347 78.4V76.4L410.947 67.8L413.347 69.6L412.547 97.8V118C416.947 114.933 421.747 112.667 426.947 111.2C432.147 109.6 437.414 108.8 442.747 108.8C450.347 108.8 457.08 110.6 462.947 114.2C468.814 117.667 473.414 123.133 476.747 130.6C480.214 137.933 481.947 147.4 481.947 159C481.947 170.6 480.014 180.267 476.147 188C472.414 195.6 467.347 201.333 460.947 205.2C454.68 209.067 447.747 211 440.147 211C435.214 211 430.214 210.333 425.147 209C420.214 207.667 415.814 205.8 411.947 203.4L408.747 210.6ZM430.147 204.2C434.414 204.2 438.147 202.867 441.347 200.2C444.547 197.533 447.08 193 448.947 186.6C450.814 180.067 451.747 171.133 451.747 159.8C451.747 148.467 450.88 139.733 449.147 133.6C447.414 127.467 444.947 123.2 441.747 120.8C438.68 118.4 434.947 117.2 430.547 117.2C424.28 117.2 418.48 118.933 413.147 122.4V199.2C415.68 200.8 418.28 202.067 420.947 203C423.614 203.8 426.68 204.2 430.147 204.2Z" fill="black"/>
<path d="M514.758 98.4C510.225 98.4 506.358 97 503.158 94.2C500.091 91.2667 498.558 87.6 498.558 83.2C498.558 78.6667 500.091 75 503.158 72.2C506.358 69.4 510.225 68 514.758 68C519.291 68 523.091 69.4 526.158 72.2C529.225 75 530.758 78.6667 530.758 83.2C530.758 87.6 529.225 91.2667 526.158 94.2C523.091 97 519.291 98.4 514.758 98.4ZM491.158 208V206L493.958 205.2C496.624 204.4 498.425 203.2 499.358 201.6C500.425 200 500.958 197.867 500.958 195.2V132.6C500.958 129.8 500.425 127.733 499.358 126.4C498.425 124.933 496.624 123.933 493.958 123.4L491.158 122.8V120.8L527.758 109L529.758 111L529.158 139.4V195.4C529.158 198.067 529.624 200.2 530.558 201.8C531.624 203.4 533.424 204.6 535.958 205.4L537.958 206V208H491.158Z" fill="black"/>
<path d="M546.813 208V206L549.613 205.2C554.279 203.867 556.613 200.6 556.613 195.4V132.8C556.613 129.867 556.146 127.733 555.213 126.4C554.279 124.933 552.479 123.933 549.813 123.4L546.813 122.6V120.6L581.013 109L583.013 111L584.613 123C589.279 118.867 594.546 115.467 600.413 112.8C606.279 110.133 612.079 108.8 617.812 108.8C626.612 108.8 633.346 111.2 638.013 116C642.813 120.8 645.213 128.133 645.213 138V195.6C645.213 200.8 647.746 204.067 652.812 205.4L654.613 206V208H607.413V206L610.013 205.2C614.679 203.733 617.013 200.467 617.013 195.4V131.6C617.013 123.067 612.746 118.8 604.213 118.8C598.346 118.8 591.946 121.733 585.013 127.6V195.6C585.013 200.8 587.346 204.067 592.013 205.4L593.812 206V208H546.813Z" fill="black"/>
<path d="M240.975 589V584.2L250.575 580.84C261.455 577.32 266.895 568.2 266.895 553.48V307.72C266.895 301.32 266.095 296.2 264.495 292.36C263.215 288.52 259.535 285.32 253.455 282.76L240.975 277V272.2H333.615L422.415 504.52L505.935 272.2H600.495V277L592.815 279.88C586.735 282.12 582.575 285.32 580.335 289.48C578.095 293.32 576.975 298.44 576.975 304.84V555.88C576.975 562.28 577.775 567.24 579.375 570.76C580.975 574.28 584.815 577.32 590.895 579.88L600.495 584.2V589H480.975V584.2L491.055 579.88C497.135 577.32 500.975 574.28 502.575 570.76C504.175 567.24 504.975 562.28 504.975 555.88V447.88L505.935 310.6L405.615 589H381.615L276.975 313.96L278.415 433.48V554.44C278.415 561.48 279.375 567.24 281.295 571.72C283.535 575.88 287.695 578.92 293.775 580.84L304.335 584.2V589H240.975Z" fill="black"/>
<path d="M728.486 350.92C749.286 350.92 767.046 355.24 781.766 363.88C796.486 372.2 807.686 383.72 815.366 398.44C823.366 412.84 827.366 429.32 827.366 447.88C827.366 451.4 827.206 455.08 826.886 458.92C826.566 462.44 825.926 465.64 824.966 468.52H681.926C682.246 503.08 688.326 528.04 700.166 543.4C712.326 558.44 730.246 565.96 753.926 565.96C769.926 565.96 782.886 563.4 792.806 558.28C802.726 553.16 812.006 545.64 820.646 535.72L825.446 540.04C815.526 557.64 802.246 571.4 785.606 581.32C769.286 591.24 749.606 596.2 726.566 596.2C703.846 596.2 683.686 591.4 666.086 581.8C648.486 571.88 634.726 557.8 624.806 539.56C614.886 521.32 609.926 499.56 609.926 474.28C609.926 448.04 615.686 425.8 627.206 407.56C638.726 389 653.446 374.92 671.366 365.32C689.606 355.72 708.646 350.92 728.486 350.92ZM727.046 360.52C717.766 360.52 709.766 363.4 703.046 369.16C696.646 374.6 691.526 384.52 687.686 398.92C684.166 413 682.246 433 681.926 458.92H764.006C767.206 424.04 765.926 398.92 760.166 383.56C754.406 368.2 743.366 360.52 727.046 360.52Z" fill="black"/>
<path d="M851.288 589V584.2L858.488 582.28C864.888 580.36 869.208 577.48 871.448 573.64C874.008 569.8 875.288 564.84 875.288 558.76V408.52C875.288 401.48 874.008 396.36 871.448 393.16C869.208 389.64 864.888 387.24 858.488 385.96L851.288 384.04V379.24L933.848 351.4L938.648 356.2L942.968 397.48V401.32C947.448 392.36 953.208 384.2 960.248 376.84C967.608 369.16 975.608 362.92 984.248 358.12C993.208 353.32 1002.01 350.92 1010.65 350.92C1022.81 350.92 1032.09 354.28 1038.49 361C1044.89 367.72 1048.09 376.2 1048.09 386.44C1048.09 397.32 1044.89 405.8 1038.49 411.88C1032.41 417.64 1025.05 420.52 1016.41 420.52C1002.97 420.52 991.128 413.8 980.888 400.36L979.928 399.4C976.728 394.92 973.048 392.52 968.888 392.2C964.728 391.56 960.888 393.48 957.368 397.96C954.168 400.84 951.448 404.36 949.208 408.52C947.288 412.36 945.368 416.84 943.448 421.96V555.88C943.448 568.68 949.048 576.68 960.248 579.88L975.608 584.2V589H851.288Z" fill="black"/>
<path d="M1054.29 589V584.2L1060.05 582.28C1071.57 578.44 1077.33 570.44 1077.33 558.28V301.48C1077.33 295.08 1076.05 290.28 1073.49 287.08C1070.93 283.56 1066.45 281 1060.05 279.4L1053.81 277.96V273.16L1141.65 252.52L1147.41 256.84L1145.49 324.04V488.2C1145.49 500.04 1145.49 511.88 1145.49 523.72C1145.81 535.24 1145.97 546.76 1145.97 558.28C1145.97 564.68 1147.25 569.96 1149.81 574.12C1152.37 577.96 1156.69 580.84 1162.77 582.76L1169.01 584.2V589H1054.29Z" fill="black"/>
<path d="M1247.79 325.96C1236.91 325.96 1227.63 322.6 1219.95 315.88C1212.59 308.84 1208.91 300.04 1208.91 289.48C1208.91 278.6 1212.59 269.8 1219.95 263.08C1227.63 256.36 1236.91 253 1247.79 253C1258.67 253 1267.79 256.36 1275.15 263.08C1282.51 269.8 1286.19 278.6 1286.19 289.48C1286.19 300.04 1282.51 308.84 1275.15 315.88C1267.79 322.6 1258.67 325.96 1247.79 325.96ZM1191.15 589V584.2L1197.87 582.28C1204.27 580.36 1208.59 577.48 1210.83 573.64C1213.39 569.8 1214.67 564.68 1214.67 558.28V408.04C1214.67 401.32 1213.39 396.36 1210.83 393.16C1208.59 389.64 1204.27 387.24 1197.87 385.96L1191.15 384.52V379.72L1278.99 351.4L1283.79 356.2L1282.35 424.36V558.76C1282.35 565.16 1283.47 570.28 1285.71 574.12C1288.27 577.96 1292.59 580.84 1298.67 582.76L1303.47 584.2V589H1191.15Z" fill="black"/>
<path d="M1324.72 589V584.2L1331.45 582.28C1342.65 579.08 1348.24 571.24 1348.24 558.76V408.52C1348.24 401.48 1347.13 396.36 1344.89 393.16C1342.65 389.64 1338.33 387.24 1331.93 385.96L1324.72 384.04V379.24L1406.81 351.4L1411.6 356.2L1415.45 385C1426.65 375.08 1439.28 366.92 1453.36 360.52C1467.44 354.12 1481.36 350.92 1495.12 350.92C1516.24 350.92 1532.4 356.68 1543.6 368.2C1555.12 379.72 1560.89 397.32 1560.89 421V559.24C1560.89 571.72 1566.97 579.56 1579.12 582.76L1583.45 584.2V589H1470.17V584.2L1476.41 582.28C1487.61 578.76 1493.21 570.92 1493.21 558.76V405.64C1493.21 385.16 1482.96 374.92 1462.48 374.92C1448.4 374.92 1433.05 381.96 1416.41 396.04V559.24C1416.41 571.72 1422.01 579.56 1433.21 582.76L1437.53 584.2V589H1324.72Z" fill="black"/>
</svg>
