<svg width="1088" height="204" viewBox="0 0 1088 204" fill="none" xmlns="http://www.w3.org/2000/svg">
<path d="M22 185.04V187.44H83.68V185.04L78.88 183.12C75.68 181.84 73.52 180.32 72.4 178.56C71.44 176.64 70.96 174.08 70.96 170.88V45.6C70.96 42.4 71.44 39.84 72.4 37.92C73.52 36 75.68 34.48 78.88 33.36L83.68 31.44V29.04H22V31.44L26.8 33.36C30.16 34.48 32.32 36 33.28 37.92C34.24 39.84 34.72 42.4 34.72 45.6V170.88C34.72 174.08 34.16 176.64 33.04 178.56C32.08 180.48 30 182 26.8 183.12L22 185.04Z" fill="black"/>
<path d="M128.508 18.48C124.988 14.16 120.268 12 114.348 12C109.387 12 105.148 13.6 101.628 16.8C98.2675 20 96.5875 24.16 96.5875 29.28C96.5875 34.08 98.1075 38.24 101.148 41.76C104.348 45.12 108.747 47.44 114.348 48.72L119.387 49.92C118.268 55.84 116.428 60.8 113.868 64.8C111.307 68.8 108.348 72.08 104.988 74.64L106.428 77.52C114.268 73.68 120.827 67.92 126.107 60.24C131.387 52.4 134.027 44 134.027 35.04C134.027 28.16 132.188 22.64 128.508 18.48Z" fill="black"/>
<path d="M134.254 185.04V187.44H190.654V185.04L188.494 184.32C182.894 182.72 180.094 178.8 180.094 172.56V92.16C184.094 88.64 187.934 86 191.614 84.24C195.294 82.32 198.974 81.36 202.654 81.36C208.254 81.36 212.174 82.72 214.414 85.44C216.814 88.16 218.014 92.72 218.014 99.12V172.32C218.014 175.52 217.374 178.08 216.094 180C214.974 181.76 212.894 183.12 209.854 184.08L206.494 185.04V187.44H262.174V185.04L260.014 184.32C254.414 182.72 251.534 178.8 251.374 172.56V110.4C251.374 107.04 251.214 103.84 250.894 100.8C250.734 97.76 250.254 94.96 249.454 92.4C253.774 88.72 257.854 86 261.694 84.24C265.694 82.32 269.774 81.36 273.934 81.36C279.214 81.36 283.054 82.64 285.454 85.2C287.854 87.6 289.054 92.16 289.054 98.88V172.32C289.054 175.52 288.414 178.08 287.134 180C286.014 181.92 283.934 183.36 280.894 184.32L278.494 185.04V187.44H333.934V185.04L331.294 184.32C325.534 182.72 322.654 178.8 322.654 172.56V102.24C322.654 90.56 319.934 82 314.494 76.56C309.214 71.12 300.894 68.4 289.534 68.4C282.654 68.4 275.534 70.16 268.174 73.68C260.974 77.04 254.254 81.68 248.014 87.6C245.614 81.04 242.094 76.24 237.454 73.2C232.814 70 226.654 68.4 218.974 68.4C211.614 68.4 204.494 70.24 197.614 73.92C190.894 77.6 184.894 82.08 179.614 87.36L177.694 71.04L175.294 68.64L134.254 82.56V84.96L137.854 85.92C141.054 86.56 143.214 87.76 144.334 89.52C145.454 91.12 146.014 93.68 146.014 97.2V172.32C145.854 175.52 145.134 178.08 143.854 180C142.734 181.92 140.654 183.28 137.614 184.08L134.254 185.04Z" fill="black"/>
<path d="M395.582 185.04V187.44H427.263V185.04L421.983 183.36C418.943 182.4 416.862 180.88 415.742 178.8C414.783 176.56 414.302 173.68 414.302 170.16V109.68L413.582 49.92L465.902 187.44H477.902L528.063 48.24L527.582 116.88V170.88C527.582 174.08 527.183 176.56 526.382 178.32C525.582 180.08 523.663 181.6 520.623 182.88L515.582 185.04V187.44H575.343V185.04L570.542 182.88C567.503 181.6 565.582 180.08 564.782 178.32C563.982 176.56 563.583 174.08 563.583 170.88V45.36C563.583 42.16 564.143 39.6 565.263 37.68C566.383 35.6 568.463 34 571.503 32.88L575.343 31.44V29.04H528.063L486.303 145.2L441.902 29.04H395.582V31.44L401.823 34.32C404.862 35.6 406.703 37.2 407.342 39.12C408.142 41.04 408.543 43.6 408.543 46.8V169.68C408.543 177.04 405.823 181.6 400.383 183.36L395.582 185.04Z" fill="black"/>
<path fill-rule="evenodd" clip-rule="evenodd" d="M665.978 74.88C658.618 70.56 649.738 68.4 639.338 68.4C629.418 68.4 619.898 70.8 610.778 75.6C601.818 80.4 594.458 87.44 588.698 96.72C582.938 105.84 580.058 116.96 580.058 130.08C580.058 142.72 582.538 153.6 587.498 162.72C592.458 171.84 599.338 178.88 608.138 183.84C616.938 188.64 627.018 191.04 638.378 191.04C649.898 191.04 659.738 188.56 667.898 183.6C676.218 178.64 682.858 171.76 687.818 162.96L685.418 160.8C681.098 165.76 676.458 169.52 671.498 172.08C666.538 174.64 660.058 175.92 652.058 175.92C640.218 175.92 631.258 172.16 625.178 164.64C619.258 156.96 616.218 144.48 616.058 127.2H687.578C688.058 125.76 688.378 124.16 688.538 122.4C688.698 120.48 688.778 118.64 688.778 116.88C688.778 107.6 686.778 99.36 682.778 92.16C678.938 84.8 673.338 79.04 665.978 74.88ZM626.618 77.52C629.978 74.64 633.978 73.2 638.618 73.2C646.778 73.2 652.298 77.04 655.178 84.72C658.058 92.4 658.698 104.96 657.098 122.4H616.058C616.218 109.44 617.178 99.44 618.938 92.4C620.858 85.2 623.418 80.24 626.618 77.52Z" fill="black"/>
<path d="M700.739 185.04V187.44H762.899V185.04L755.219 182.88C749.619 181.28 746.819 177.28 746.819 170.88V103.92C747.779 101.36 748.739 99.12 749.699 97.2C750.819 95.12 752.179 93.36 753.779 91.92C755.539 89.68 757.459 88.72 759.539 89.04C761.619 89.2 763.459 90.4 765.059 92.64L765.539 93.12C770.659 99.84 776.579 103.2 783.299 103.2C787.619 103.2 791.299 101.76 794.339 98.88C797.539 95.84 799.139 91.6 799.139 86.16C799.139 81.04 797.539 76.8 794.339 73.44C791.139 70.08 786.499 68.4 780.419 68.4C776.099 68.4 771.699 69.6 767.219 72C762.899 74.4 758.899 77.52 755.219 81.36C751.699 85.04 748.819 89.12 746.579 93.6V91.68L744.419 71.04L742.019 68.64L700.739 82.56V84.96L704.339 85.92C707.539 86.56 709.699 87.76 710.819 89.52C712.099 91.12 712.739 93.68 712.739 97.2V172.32C712.739 175.36 712.099 177.84 710.819 179.76C709.699 181.68 707.539 183.12 704.339 184.08L700.739 185.04Z" fill="black"/>
<path d="M802.24 185.04V187.44H859.6V185.04L856.48 184.32C853.44 183.36 851.28 181.92 850 180C848.72 177.92 848.08 175.28 848.08 172.08C848.08 166.32 848 160.56 847.84 154.8V54.96L848.8 21.36L845.92 19.2L802 29.52V31.92L805.12 32.64C808.32 33.44 810.56 34.72 811.84 36.48C813.12 38.08 813.76 40.48 813.76 43.68V172.08C813.76 178.16 810.88 182.16 805.12 184.08L802.24 185.04Z" fill="black"/>
<path d="M885.072 50.88C888.912 54.24 893.552 55.92 898.992 55.92C904.432 55.92 908.992 54.24 912.672 50.88C916.352 47.36 918.192 42.96 918.192 37.68C918.192 32.24 916.352 27.84 912.672 24.48C908.992 21.12 904.432 19.44 898.992 19.44C893.552 19.44 888.912 21.12 885.072 24.48C881.392 27.84 879.552 32.24 879.552 37.68C879.552 42.96 881.392 47.36 885.072 50.88Z" fill="black"/>
<path d="M870.672 185.04V187.44H926.832V185.04L924.432 184.32C921.392 183.36 919.232 181.92 917.952 180C916.832 178.08 916.272 175.52 916.272 172.32V105.12L916.992 71.04L914.592 68.64L870.672 82.8V85.2L874.032 85.92C877.232 86.56 879.392 87.76 880.512 89.52C881.792 91.12 882.432 93.6 882.432 96.96V172.08C882.432 175.28 881.792 177.84 880.512 179.76C879.392 181.68 877.232 183.12 874.032 184.08L870.672 185.04Z" fill="black"/>
<path d="M937.458 185.04V187.44H993.858V185.04L991.698 184.32C986.098 182.72 983.297 178.8 983.297 172.56V90.96C991.617 83.92 999.297 80.4 1006.34 80.4C1016.58 80.4 1021.7 85.52 1021.7 95.76V172.32C1021.7 178.4 1018.9 182.32 1013.3 184.08L1010.18 185.04V187.44H1066.82V185.04L1064.66 184.32C1058.58 182.72 1055.54 178.8 1055.54 172.56V103.44C1055.54 91.6 1052.66 82.8 1046.9 77.04C1041.3 71.28 1033.22 68.4 1022.66 68.4C1015.78 68.4 1008.82 70 1001.78 73.2C994.737 76.4 988.418 80.48 982.818 85.44L980.897 71.04L978.498 68.64L937.458 82.56V84.96L941.057 85.92C944.257 86.56 946.417 87.76 947.537 89.52C948.657 91.12 949.218 93.68 949.218 97.2V172.32C949.218 178.56 946.418 182.48 940.818 184.08L937.458 185.04Z" fill="black"/>
</svg>
